<?xml version="1.0" encoding="UTF-8" standalone="no"?>
<!-- Created with Inkscape (http://www.inkscape.org/) -->

<svg
   width="687.91663mm"
   height="385.82077mm"
   viewBox="0 0 687.91663 385.82077"
   version="1.1"
   id="svg1"
   inkscape:version="1.3 (0e150ed6c4, 2023-07-21)"
   xml:space="preserve"
   sodipodi:docname="pattern.svg"
   inkscape:export-filename="pattern.svg"
   inkscape:export-xdpi="96"
   inkscape:export-ydpi="96"
   xmlns:inkscape="http://www.inkscape.org/namespaces/inkscape"
   xmlns:sodipodi="http://sodipodi.sourceforge.net/DTD/sodipodi-0.dtd"
   xmlns="http://www.w3.org/2000/svg"
   xmlns:svg="http://www.w3.org/2000/svg"><sodipodi:namedview
     id="namedview1"
     pagecolor="#ffffff"
     bordercolor="#eeeeee"
     borderopacity="0"
     inkscape:showpageshadow="0"
     inkscape:pageopacity="0"
     inkscape:pagecheckerboard="0"
     inkscape:deskcolor="#ffffff"
     inkscape:document-units="px"
     showguides="true"
     inkscape:zoom="0.01"
     inkscape:cx="1350"
     inkscape:cy="7600"
     inkscape:window-width="1366"
     inkscape:window-height="745"
     inkscape:window-x="-8"
     inkscape:window-y="-8"
     inkscape:window-maximized="1"
     inkscape:current-layer="layer1"><sodipodi:guide
       position="2270.1073,-280.5596"
       orientation="0,-1"
       id="guide1"
       inkscape:locked="false" /><sodipodi:guide
       position="2268.7843,-338.76793"
       orientation="0,-1"
       id="guide2"
       inkscape:locked="false" /><sodipodi:guide
       position="2283.8764,-309.66377"
       orientation="1,0"
       id="guide16"
       inkscape:locked="false" /><sodipodi:guide
       position="2312.9805,-309.66377"
       orientation="1,0"
       id="guide17"
       inkscape:locked="false" /><sodipodi:guide
       position="2291.6313,-295.11167"
       orientation="0,-1"
       id="guide18"
       inkscape:locked="false" /><sodipodi:guide
       position="2298.4285,-324.21586"
       orientation="0,-1"
       id="guide19"
       inkscape:locked="false" /><sodipodi:guide
       position="2493.8741,-788.03904"
       orientation="0,-1"
       id="guide4"
       inkscape:locked="false" /><sodipodi:guide
       position="2507.3445,-945.54855"
       orientation="0,-1"
       id="guide5"
       inkscape:locked="false" /><sodipodi:guide
       position="6597.1175,-8837.8984"
       orientation="1,0"
       id="guide46"
       inkscape:locked="false" /><sodipodi:guide
       position="6376.8814,-6585.1216"
       orientation="0,-1"
       id="guide47"
       inkscape:locked="false" /><sodipodi:guide
       position="2168.5481,-88.820747"
       orientation="0,-1"
       id="guide276"
       inkscape:locked="false" /></sodipodi:namedview><defs
     id="defs1" /><g
     inkscape:label="Layer 1"
     inkscape:groupmode="layer"
     id="layer1"
     transform="translate(2097.2461,433.41378)"><path
       id="circle341"
       style="fill:#00ff00;fill-opacity:1;stroke-width:264.584;stroke-linejoin:round;paint-order:markers stroke fill"
       d="m -1452.6701,-126.56443 a 21.166668,21.166668 0 0 0 -17.3235,10.55956 21.166668,21.166668 0 0 0 7.7473,28.91399 l 2.742,-4.749067 a 15.682955,15.682955 0 0 1 -5.7402,-21.422963 15.682955,15.682955 0 0 1 12.8354,-7.82383 15.682955,15.682955 0 0 1 8.5875,2.08359 15.682955,15.682955 0 0 1 5.7408,21.422987 15.682955,15.682955 0 0 1 -5.7583,5.709727 l 2.7145,4.701005 a 21.166668,21.166668 0 0 0 7.7928,-7.668777 21.166668,21.166668 0 0 0 -7.7478,-28.913992 21.166668,21.166668 0 0 0 -11.5905,-2.81223 z m -20.1595,36.63807 a 21.166668,21.166668 0 0 0 -21.1667,21.16664 21.166668,21.166668 0 0 0 21.1667,21.166691 21.166668,21.166668 0 0 0 21.1667,-21.16667 l -5.4875,10e-7 a 15.682955,15.682955 0 0 1 -2.0971,7.841381 15.682955,15.682955 0 0 1 -21.4235,5.740221 15.682955,15.682955 0 0 1 -5.7402,-21.422991 15.682955,15.682955 0 0 1 21.423,-5.740727 l 2.6965,-4.670521 a 21.166668,21.166668 0 0 0 -10.5379,-2.914025 z m 43.3405,0.02377 a 21.166668,21.166668 0 0 0 -11.5905,2.811713 l 2.76,4.780068 a 15.682955,15.682955 0 0 1 15.6652,-0.03101 15.682955,15.682955 0 0 1 5.7402,21.423506 15.682955,15.682955 0 0 1 -21.4235,5.740212 15.682955,15.682955 0 0 1 -7.8062,-13.581598 l -5.4281,10e-7 a 21.166668,21.166668 0 0 0 2.7451,10.583333 21.166668,21.166668 0 0 0 28.914,7.747329 21.166668,21.166668 0 0 0 7.7478,-28.913999 21.166668,21.166668 0 0 0 -17.324,-10.559557 z"
       inkscape:export-filename="OneDrive\Desktop\Turing\image\pattern.svg"
       inkscape:export-xdpi="96"
       inkscape:export-ydpi="96" /><path
       id="path346"
       style="fill:#00ff00;fill-opacity:1;stroke-width:264.584;stroke-linejoin:round;paint-order:markers stroke fill"
       d="m -1564.8534,-126.56443 a 21.166668,21.166668 0 0 0 -17.3235,10.55956 21.166668,21.166668 0 0 0 7.7473,28.91399 l 2.742,-4.749067 a 15.682955,15.682955 0 0 1 -5.7402,-21.422963 15.682955,15.682955 0 0 1 12.8354,-7.82383 15.682955,15.682955 0 0 1 8.5875,2.08359 15.682955,15.682955 0 0 1 5.7408,21.422987 15.682955,15.682955 0 0 1 -5.7583,5.709727 l 2.7145,4.701005 a 21.166668,21.166668 0 0 0 7.7928,-7.668777 21.166668,21.166668 0 0 0 -7.7478,-28.913992 21.166668,21.166668 0 0 0 -11.5905,-2.81223 z m -20.1595,36.63807 a 21.166668,21.166668 0 0 0 -21.1667,21.16664 21.166668,21.166668 0 0 0 21.1667,21.166691 21.166668,21.166668 0 0 0 21.1667,-21.16667 l -5.4875,10e-7 a 15.682955,15.682955 0 0 1 -2.0971,7.841381 15.682955,15.682955 0 0 1 -21.4235,5.740221 15.682955,15.682955 0 0 1 -5.7402,-21.422991 15.682955,15.682955 0 0 1 21.423,-5.740727 l 2.6965,-4.670521 a 21.166668,21.166668 0 0 0 -10.5379,-2.914025 z m 43.3405,0.02377 a 21.166668,21.166668 0 0 0 -11.5905,2.811713 l 2.76,4.780068 a 15.682955,15.682955 0 0 1 15.6652,-0.03101 15.682955,15.682955 0 0 1 5.7402,21.423506 15.682955,15.682955 0 0 1 -21.4235,5.740212 15.682955,15.682955 0 0 1 -7.8062,-13.581598 l -5.4281,10e-7 a 21.166668,21.166668 0 0 0 2.7451,10.583333 21.166668,21.166668 0 0 0 28.914,7.747329 21.166668,21.166668 0 0 0 7.7478,-28.913999 21.166668,21.166668 0 0 0 -17.324,-10.559557 z" /><path
       id="path347"
       style="fill:#00ff00;fill-opacity:1;stroke-width:264.584;stroke-linejoin:round;paint-order:markers stroke fill"
       d="m -1677.0367,-126.56443 a 21.166668,21.166668 0 0 0 -17.3235,10.55956 21.166668,21.166668 0 0 0 7.7473,28.91399 l 2.742,-4.749067 a 15.682955,15.682955 0 0 1 -5.7402,-21.422963 15.682955,15.682955 0 0 1 12.8354,-7.82383 15.682955,15.682955 0 0 1 8.5875,2.08359 15.682955,15.682955 0 0 1 5.7408,21.422987 15.682955,15.682955 0 0 1 -5.7583,5.709727 l 2.7145,4.701005 a 21.166668,21.166668 0 0 0 7.7928,-7.668777 21.166668,21.166668 0 0 0 -7.7478,-28.913992 21.166668,21.166668 0 0 0 -11.5905,-2.81223 z m -20.1595,36.63807 a 21.166668,21.166668 0 0 0 -21.1667,21.16664 21.166668,21.166668 0 0 0 21.1667,21.166691 21.166668,21.166668 0 0 0 21.1667,-21.16667 l -5.4875,10e-7 a 15.682955,15.682955 0 0 1 -2.0971,7.841381 15.682955,15.682955 0 0 1 -21.4235,5.740221 15.682955,15.682955 0 0 1 -5.7402,-21.422991 15.682955,15.682955 0 0 1 21.423,-5.740727 l 2.6965,-4.670521 a 21.166668,21.166668 0 0 0 -10.5379,-2.914025 z m 43.3405,0.02377 a 21.166668,21.166668 0 0 0 -11.5905,2.811713 l 2.76,4.780068 a 15.682955,15.682955 0 0 1 15.6652,-0.03101 15.682955,15.682955 0 0 1 5.7402,21.423506 15.682955,15.682955 0 0 1 -21.4235,5.740212 15.682955,15.682955 0 0 1 -7.8062,-13.581598 l -5.4281,10e-7 a 21.166668,21.166668 0 0 0 2.7451,10.583333 21.166668,21.166668 0 0 0 28.914,7.747329 21.166668,21.166668 0 0 0 7.7478,-28.913999 21.166668,21.166668 0 0 0 -17.324,-10.559557 z" /><path
       id="path348"
       style="fill:#00ff00;fill-opacity:1;stroke-width:264.584;stroke-linejoin:round;paint-order:markers stroke fill"
       d="m -1789.22,-126.56443 a 21.166668,21.166668 0 0 0 -17.3235,10.55956 21.166668,21.166668 0 0 0 7.7473,28.91399 l 2.742,-4.749067 a 15.682955,15.682955 0 0 1 -5.7402,-21.422963 15.682955,15.682955 0 0 1 12.8354,-7.82383 15.682955,15.682955 0 0 1 8.5875,2.08359 15.682955,15.682955 0 0 1 5.7408,21.422987 15.682955,15.682955 0 0 1 -5.7583,5.709727 l 2.7145,4.701005 a 21.166668,21.166668 0 0 0 7.7928,-7.668777 21.166668,21.166668 0 0 0 -7.7478,-28.913992 21.166668,21.166668 0 0 0 -11.5905,-2.81223 z m -20.1595,36.63807 a 21.166668,21.166668 0 0 0 -21.1667,21.16664 21.166668,21.166668 0 0 0 21.1667,21.166691 21.166668,21.166668 0 0 0 21.1667,-21.16667 l -5.4875,10e-7 a 15.682955,15.682955 0 0 1 -2.0971,7.841381 15.682955,15.682955 0 0 1 -21.4235,5.740221 15.682955,15.682955 0 0 1 -5.7402,-21.422991 15.682955,15.682955 0 0 1 21.423,-5.740727 l 2.6965,-4.670521 a 21.166668,21.166668 0 0 0 -10.5379,-2.914025 z m 43.3405,0.02377 a 21.166668,21.166668 0 0 0 -11.5905,2.811713 l 2.76,4.780068 a 15.682955,15.682955 0 0 1 15.6652,-0.03101 15.682955,15.682955 0 0 1 5.7402,21.423506 15.682955,15.682955 0 0 1 -21.4235,5.740212 15.682955,15.682955 0 0 1 -7.8062,-13.581598 l -5.4281,10e-7 a 21.166668,21.166668 0 0 0 2.7451,10.583333 21.166668,21.166668 0 0 0 28.914,7.747329 21.166668,21.166668 0 0 0 7.7478,-28.913999 21.166668,21.166668 0 0 0 -17.324,-10.559557 z" /><path
       id="path349"
       style="fill:#00ff00;fill-opacity:1;stroke-width:264.584;stroke-linejoin:round;paint-order:markers stroke fill"
       d="m -1901.4033,-126.56443 a 21.166668,21.166668 0 0 0 -17.3235,10.55956 21.166668,21.166668 0 0 0 7.7473,28.91399 l 2.742,-4.749067 a 15.682955,15.682955 0 0 1 -5.7402,-21.422963 15.682955,15.682955 0 0 1 12.8354,-7.82383 15.682955,15.682955 0 0 1 8.5875,2.08359 15.682955,15.682955 0 0 1 5.7408,21.422987 15.682955,15.682955 0 0 1 -5.7583,5.709727 l 2.7145,4.701005 a 21.166668,21.166668 0 0 0 7.7928,-7.668777 21.166668,21.166668 0 0 0 -7.7478,-28.913992 21.166668,21.166668 0 0 0 -11.5905,-2.81223 z m -20.1595,36.63807 a 21.166668,21.166668 0 0 0 -21.1667,21.16664 21.166668,21.166668 0 0 0 21.1667,21.166691 21.166668,21.166668 0 0 0 21.1667,-21.16667 l -5.4875,10e-7 a 15.682955,15.682955 0 0 1 -2.0971,7.841381 15.682955,15.682955 0 0 1 -21.4235,5.740221 15.682955,15.682955 0 0 1 -5.7402,-21.422991 15.682955,15.682955 0 0 1 21.423,-5.740727 l 2.6965,-4.670521 a 21.166668,21.166668 0 0 0 -10.5379,-2.914025 z m 43.3405,0.02377 a 21.166668,21.166668 0 0 0 -11.5905,2.811713 l 2.76,4.780068 a 15.682955,15.682955 0 0 1 15.6652,-0.03101 15.682955,15.682955 0 0 1 5.7402,21.423506 15.682955,15.682955 0 0 1 -21.4235,5.740212 15.682955,15.682955 0 0 1 -7.8062,-13.581598 l -5.4281,10e-7 a 21.166668,21.166668 0 0 0 2.7451,10.583333 21.166668,21.166668 0 0 0 28.914,7.747329 21.166668,21.166668 0 0 0 7.7478,-28.913999 21.166668,21.166668 0 0 0 -17.324,-10.559557 z" /><path
       id="path350"
       style="fill:#00ff00;fill-opacity:1;stroke-width:264.584;stroke-linejoin:round;paint-order:markers stroke fill"
       d="m -2013.5866,-126.56443 a 21.166668,21.166668 0 0 0 -17.3235,10.55956 21.166668,21.166668 0 0 0 7.7473,28.91399 l 2.742,-4.749067 a 15.682955,15.682955 0 0 1 -5.7402,-21.422963 15.682955,15.682955 0 0 1 12.8354,-7.82383 15.682955,15.682955 0 0 1 8.5875,2.08359 15.682955,15.682955 0 0 1 5.7408,21.422987 15.682955,15.682955 0 0 1 -5.7583,5.709727 l 2.7145,4.701005 a 21.166668,21.166668 0 0 0 7.7928,-7.668777 21.166668,21.166668 0 0 0 -7.7478,-28.913992 21.166668,21.166668 0 0 0 -11.5905,-2.81223 z m -20.1595,36.63807 a 21.166668,21.166668 0 0 0 -21.1667,21.16664 21.166668,21.166668 0 0 0 21.1667,21.166691 21.166668,21.166668 0 0 0 21.1667,-21.16667 l -5.4875,10e-7 a 15.682955,15.682955 0 0 1 -2.0971,7.841381 15.682955,15.682955 0 0 1 -21.4235,5.740221 15.682955,15.682955 0 0 1 -5.7402,-21.422991 15.682955,15.682955 0 0 1 21.423,-5.740727 l 2.6965,-4.670521 a 21.166668,21.166668 0 0 0 -10.5379,-2.914025 z m 43.3405,0.02377 a 21.166668,21.166668 0 0 0 -11.5905,2.811713 l 2.76,4.780068 a 15.682955,15.682955 0 0 1 15.6652,-0.03101 15.682955,15.682955 0 0 1 5.7402,21.423506 15.682955,15.682955 0 0 1 -21.4235,5.740212 15.682955,15.682955 0 0 1 -7.8062,-13.581598 l -5.4281,10e-7 a 21.166668,21.166668 0 0 0 2.7451,10.583333 21.166668,21.166668 0 0 0 28.914,7.747329 21.166668,21.166668 0 0 0 7.7478,-28.913999 21.166668,21.166668 0 0 0 -17.324,-10.559557 z" /><path
       id="path351"
       style="fill:#00ff00;fill-opacity:1;stroke-width:264.584;stroke-linejoin:round;paint-order:markers stroke fill"
       d="m -1495.0035,-144.90308 a 21.166668,21.166668 0 0 1 -17.3235,-10.55956 21.166668,21.166668 0 0 1 7.7473,-28.91399 l 2.742,4.74907 a 15.682955,15.682955 0 0 0 -5.7402,21.42296 15.682955,15.682955 0 0 0 12.8354,7.82383 15.682955,15.682955 0 0 0 8.5875,-2.08359 15.682955,15.682955 0 0 0 5.7408,-21.42299 15.682955,15.682955 0 0 0 -5.7583,-5.70973 l 2.7145,-4.701 a 21.166668,21.166668 0 0 1 7.7928,7.66878 21.166668,21.166668 0 0 1 -7.7478,28.91399 21.166668,21.166668 0 0 1 -11.5905,2.81223 z m -20.1595,-36.63807 a 21.166668,21.166668 0 0 1 -21.1667,-21.16664 21.166668,21.166668 0 0 1 21.1667,-21.16669 21.166668,21.166668 0 0 1 21.1667,21.16667 h -5.4875 a 15.682955,15.682955 0 0 0 -2.0971,-7.84138 15.682955,15.682955 0 0 0 -21.4235,-5.74023 15.682955,15.682955 0 0 0 -5.7402,21.423 15.682955,15.682955 0 0 0 21.423,5.74072 l 2.6965,4.67052 a 21.166668,21.166668 0 0 1 -10.5379,2.91403 z m 43.3405,-0.0238 a 21.166668,21.166668 0 0 1 -11.5905,-2.81171 l 2.76,-4.78007 a 15.682955,15.682955 0 0 0 15.6652,0.031 15.682955,15.682955 0 0 0 5.7402,-21.42351 15.682955,15.682955 0 0 0 -21.4235,-5.74021 15.682955,15.682955 0 0 0 -7.8062,13.5816 h -5.4281 a 21.166668,21.166668 0 0 1 2.7451,-10.58334 21.166668,21.166668 0 0 1 28.914,-7.74733 21.166668,21.166668 0 0 1 7.7478,28.914 21.166668,21.166668 0 0 1 -17.324,10.55956 z" /><path
       id="path352"
       style="fill:#00ff00;fill-opacity:1;stroke-width:264.584;stroke-linejoin:round;paint-order:markers stroke fill"
       d="m -1607.1868,-144.90308 a 21.166668,21.166668 0 0 1 -17.3235,-10.55956 21.166668,21.166668 0 0 1 7.7473,-28.91399 l 2.742,4.74907 a 15.682955,15.682955 0 0 0 -5.7402,21.42296 15.682955,15.682955 0 0 0 12.8354,7.82383 15.682955,15.682955 0 0 0 8.5875,-2.08359 15.682955,15.682955 0 0 0 5.7408,-21.42299 15.682955,15.682955 0 0 0 -5.7583,-5.70973 l 2.7145,-4.701 a 21.166668,21.166668 0 0 1 7.7928,7.66878 21.166668,21.166668 0 0 1 -7.7478,28.91399 21.166668,21.166668 0 0 1 -11.5905,2.81223 z m -20.1595,-36.63807 a 21.166668,21.166668 0 0 1 -21.1667,-21.16664 21.166668,21.166668 0 0 1 21.1667,-21.16669 21.166668,21.166668 0 0 1 21.1667,21.16667 h -5.4875 a 15.682955,15.682955 0 0 0 -2.0971,-7.84138 15.682955,15.682955 0 0 0 -21.4235,-5.74023 15.682955,15.682955 0 0 0 -5.7402,21.423 15.682955,15.682955 0 0 0 21.423,5.74072 l 2.6965,4.67052 a 21.166668,21.166668 0 0 1 -10.5379,2.91403 z m 43.3405,-0.0238 a 21.166668,21.166668 0 0 1 -11.5905,-2.81171 l 2.76,-4.78007 a 15.682955,15.682955 0 0 0 15.6652,0.031 15.682955,15.682955 0 0 0 5.7402,-21.42351 15.682955,15.682955 0 0 0 -21.4235,-5.74021 15.682955,15.682955 0 0 0 -7.8062,13.5816 h -5.4281 a 21.166668,21.166668 0 0 1 2.7451,-10.58334 21.166668,21.166668 0 0 1 28.914,-7.74733 21.166668,21.166668 0 0 1 7.7478,28.914 21.166668,21.166668 0 0 1 -17.324,10.55956 z" /><path
       id="path353"
       style="fill:#00ff00;fill-opacity:1;stroke-width:264.584;stroke-linejoin:round;paint-order:markers stroke fill"
       d="m -1719.3701,-144.90308 a 21.166668,21.166668 0 0 1 -17.3235,-10.55956 21.166668,21.166668 0 0 1 7.7473,-28.91399 l 2.742,4.74907 a 15.682955,15.682955 0 0 0 -5.7402,21.42296 15.682955,15.682955 0 0 0 12.8354,7.82383 15.682955,15.682955 0 0 0 8.5875,-2.08359 15.682955,15.682955 0 0 0 5.7408,-21.42299 15.682955,15.682955 0 0 0 -5.7583,-5.70973 l 2.7145,-4.701 a 21.166668,21.166668 0 0 1 7.7928,7.66878 21.166668,21.166668 0 0 1 -7.7478,28.91399 21.166668,21.166668 0 0 1 -11.5905,2.81223 z m -20.1595,-36.63807 a 21.166668,21.166668 0 0 1 -21.1667,-21.16664 21.166668,21.166668 0 0 1 21.1667,-21.16669 21.166668,21.166668 0 0 1 21.1667,21.16667 h -5.4875 a 15.682955,15.682955 0 0 0 -2.0971,-7.84138 15.682955,15.682955 0 0 0 -21.4235,-5.74023 15.682955,15.682955 0 0 0 -5.7402,21.423 15.682955,15.682955 0 0 0 21.423,5.74072 l 2.6965,4.67052 a 21.166668,21.166668 0 0 1 -10.5379,2.91403 z m 43.3405,-0.0238 a 21.166668,21.166668 0 0 1 -11.5905,-2.81171 l 2.76,-4.78007 a 15.682955,15.682955 0 0 0 15.6652,0.031 15.682955,15.682955 0 0 0 5.7402,-21.42351 15.682955,15.682955 0 0 0 -21.4235,-5.74021 15.682955,15.682955 0 0 0 -7.8062,13.5816 h -5.4281 a 21.166668,21.166668 0 0 1 2.7451,-10.58334 21.166668,21.166668 0 0 1 28.914,-7.74733 21.166668,21.166668 0 0 1 7.7478,28.914 21.166668,21.166668 0 0 1 -17.324,10.55956 z" /><path
       id="path354"
       style="fill:#00ff00;fill-opacity:1;stroke-width:264.584;stroke-linejoin:round;paint-order:markers stroke fill"
       d="m -1831.5534,-144.90308 a 21.166668,21.166668 0 0 1 -17.3235,-10.55956 21.166668,21.166668 0 0 1 7.7473,-28.91399 l 2.742,4.74907 a 15.682955,15.682955 0 0 0 -5.7402,21.42296 15.682955,15.682955 0 0 0 12.8354,7.82383 15.682955,15.682955 0 0 0 8.5875,-2.08359 15.682955,15.682955 0 0 0 5.7408,-21.42299 15.682955,15.682955 0 0 0 -5.7583,-5.70973 l 2.7145,-4.701 a 21.166668,21.166668 0 0 1 7.7928,7.66878 21.166668,21.166668 0 0 1 -7.7478,28.91399 21.166668,21.166668 0 0 1 -11.5905,2.81223 z m -20.1595,-36.63807 a 21.166668,21.166668 0 0 1 -21.1667,-21.16664 21.166668,21.166668 0 0 1 21.1667,-21.16669 21.166668,21.166668 0 0 1 21.1667,21.16667 h -5.4875 a 15.682955,15.682955 0 0 0 -2.0971,-7.84138 15.682955,15.682955 0 0 0 -21.4235,-5.74023 15.682955,15.682955 0 0 0 -5.7402,21.423 15.682955,15.682955 0 0 0 21.423,5.74072 l 2.6965,4.67052 a 21.166668,21.166668 0 0 1 -10.5379,2.91403 z m 43.3405,-0.0238 a 21.166668,21.166668 0 0 1 -11.5905,-2.81171 l 2.76,-4.78007 a 15.682955,15.682955 0 0 0 15.6652,0.031 15.682955,15.682955 0 0 0 5.7402,-21.42351 15.682955,15.682955 0 0 0 -21.4235,-5.74021 15.682955,15.682955 0 0 0 -7.8062,13.5816 h -5.4281 a 21.166668,21.166668 0 0 1 2.7451,-10.58334 21.166668,21.166668 0 0 1 28.914,-7.74733 21.166668,21.166668 0 0 1 7.7478,28.914 21.166668,21.166668 0 0 1 -17.324,10.55956 z" /><path
       id="path355"
       style="fill:#00ff00;fill-opacity:1;stroke-width:264.584;stroke-linejoin:round;paint-order:markers stroke fill"
       d="m -1943.7367,-144.90308 a 21.166668,21.166668 0 0 1 -17.3235,-10.55956 21.166668,21.166668 0 0 1 7.7473,-28.91399 l 2.742,4.74907 a 15.682955,15.682955 0 0 0 -5.7402,21.42296 15.682955,15.682955 0 0 0 12.8354,7.82383 15.682955,15.682955 0 0 0 8.5875,-2.08359 15.682955,15.682955 0 0 0 5.7408,-21.42299 15.682955,15.682955 0 0 0 -5.7583,-5.70973 l 2.7145,-4.701 a 21.166668,21.166668 0 0 1 7.7928,7.66878 21.166668,21.166668 0 0 1 -7.7478,28.91399 21.166668,21.166668 0 0 1 -11.5905,2.81223 z m -20.1595,-36.63807 a 21.166668,21.166668 0 0 1 -21.1667,-21.16664 21.166668,21.166668 0 0 1 21.1667,-21.16669 21.166668,21.166668 0 0 1 21.1667,21.16667 h -5.4875 a 15.682955,15.682955 0 0 0 -2.0971,-7.84138 15.682955,15.682955 0 0 0 -21.4235,-5.74023 15.682955,15.682955 0 0 0 -5.7402,21.423 15.682955,15.682955 0 0 0 21.423,5.74072 l 2.6965,4.67052 a 21.166668,21.166668 0 0 1 -10.5379,2.91403 z m 43.3405,-0.0238 a 21.166668,21.166668 0 0 1 -11.5905,-2.81171 l 2.76,-4.78007 a 15.682955,15.682955 0 0 0 15.6652,0.031 15.682955,15.682955 0 0 0 5.7402,-21.42351 15.682955,15.682955 0 0 0 -21.4235,-5.74021 15.682955,15.682955 0 0 0 -7.8062,13.5816 h -5.4281 a 21.166668,21.166668 0 0 1 2.7451,-10.58334 21.166668,21.166668 0 0 1 28.914,-7.74733 21.166668,21.166668 0 0 1 7.7478,28.914 21.166668,21.166668 0 0 1 -17.324,10.55956 z" /><path
       id="path356"
       style="fill:#aa0000;fill-opacity:1;stroke-width:264.584;stroke-linejoin:round;paint-order:markers stroke fill"
       d="m -2055.92,-144.90308 a 21.166668,21.166668 0 0 1 -17.3235,-10.55956 21.166668,21.166668 0 0 1 7.7473,-28.91399 l 2.742,4.74907 a 15.682955,15.682955 0 0 0 -5.7402,21.42296 15.682955,15.682955 0 0 0 12.8354,7.82383 15.682955,15.682955 0 0 0 8.5875,-2.08359 15.682955,15.682955 0 0 0 5.7408,-21.42299 15.682955,15.682955 0 0 0 -5.7583,-5.70973 l 2.7145,-4.701 a 21.166668,21.166668 0 0 1 7.7928,7.66878 21.166668,21.166668 0 0 1 -7.7478,28.91399 21.166668,21.166668 0 0 1 -11.5905,2.81223 z m -20.1595,-36.63807 a 21.166668,21.166668 0 0 1 -21.1667,-21.16664 21.166668,21.166668 0 0 1 21.1667,-21.16669 21.166668,21.166668 0 0 1 21.1667,21.16667 h -5.4875 a 15.682955,15.682955 0 0 0 -2.0971,-7.84138 15.682955,15.682955 0 0 0 -21.4235,-5.74023 15.682955,15.682955 0 0 0 -5.7402,21.423 15.682955,15.682955 0 0 0 21.423,5.74072 l 2.6965,4.67052 a 21.166668,21.166668 0 0 1 -10.5379,2.91403 z m 43.3405,-0.0238 a 21.166668,21.166668 0 0 1 -11.5905,-2.81171 l 2.76,-4.78007 a 15.682955,15.682955 0 0 0 15.6652,0.031 15.682955,15.682955 0 0 0 5.7402,-21.42351 15.682955,15.682955 0 0 0 -21.4235,-5.74021 15.682955,15.682955 0 0 0 -7.8062,13.5816 h -5.4281 a 21.166668,21.166668 0 0 1 2.7451,-10.58334 21.166668,21.166668 0 0 1 28.914,-7.74733 21.166668,21.166668 0 0 1 7.7478,28.914 21.166668,21.166668 0 0 1 -17.324,10.55956 z" /><path
       id="path357"
       style="fill:#00ff00;fill-opacity:1;stroke-width:264.584;stroke-linejoin:round;paint-order:markers stroke fill"
       d="m -1452.6701,-336.10374 a 21.166668,21.166668 0 0 0 -17.3235,10.55956 21.166668,21.166668 0 0 0 7.7473,28.91399 l 2.742,-4.74907 a 15.682955,15.682955 0 0 1 -5.7402,-21.42296 15.682955,15.682955 0 0 1 12.8354,-7.82383 15.682955,15.682955 0 0 1 8.5875,2.08359 15.682955,15.682955 0 0 1 5.7408,21.42299 15.682955,15.682955 0 0 1 -5.7583,5.70972 l 2.7145,4.70101 a 21.166668,21.166668 0 0 0 7.7928,-7.66878 21.166668,21.166668 0 0 0 -7.7478,-28.91399 21.166668,21.166668 0 0 0 -11.5905,-2.81223 z m -20.1595,36.63807 a 21.166668,21.166668 0 0 0 -21.1667,21.16664 21.166668,21.166668 0 0 0 21.1667,21.16669 21.166668,21.166668 0 0 0 21.1667,-21.16667 h -5.4875 a 15.682955,15.682955 0 0 1 -2.0971,7.84138 15.682955,15.682955 0 0 1 -21.4235,5.74022 15.682955,15.682955 0 0 1 -5.7402,-21.42299 15.682955,15.682955 0 0 1 21.423,-5.74072 l 2.6965,-4.67053 a 21.166668,21.166668 0 0 0 -10.5379,-2.91402 z m 43.3405,0.0238 a 21.166668,21.166668 0 0 0 -11.5905,2.81171 l 2.76,4.78007 a 15.682955,15.682955 0 0 1 15.6652,-0.031 15.682955,15.682955 0 0 1 5.7402,21.42351 15.682955,15.682955 0 0 1 -21.4235,5.74021 15.682955,15.682955 0 0 1 -7.8062,-13.5816 h -5.4281 a 21.166668,21.166668 0 0 0 2.7451,10.58333 21.166668,21.166668 0 0 0 28.914,7.74733 21.166668,21.166668 0 0 0 7.7478,-28.914 21.166668,21.166668 0 0 0 -17.324,-10.55955 z" /><path
       id="path358"
       style="fill:#00ff00;fill-opacity:1;stroke-width:264.584;stroke-linejoin:round;paint-order:markers stroke fill"
       d="m -1564.8534,-336.10374 a 21.166668,21.166668 0 0 0 -17.3235,10.55956 21.166668,21.166668 0 0 0 7.7473,28.91399 l 2.742,-4.74907 a 15.682955,15.682955 0 0 1 -5.7402,-21.42296 15.682955,15.682955 0 0 1 12.8354,-7.82383 15.682955,15.682955 0 0 1 8.5875,2.08359 15.682955,15.682955 0 0 1 5.7408,21.42299 15.682955,15.682955 0 0 1 -5.7583,5.70972 l 2.7145,4.70101 a 21.166668,21.166668 0 0 0 7.7928,-7.66878 21.166668,21.166668 0 0 0 -7.7478,-28.91399 21.166668,21.166668 0 0 0 -11.5905,-2.81223 z m -20.1595,36.63807 a 21.166668,21.166668 0 0 0 -21.1667,21.16664 21.166668,21.166668 0 0 0 21.1667,21.16669 21.166668,21.166668 0 0 0 21.1667,-21.16667 h -5.4875 a 15.682955,15.682955 0 0 1 -2.0971,7.84138 15.682955,15.682955 0 0 1 -21.4235,5.74022 15.682955,15.682955 0 0 1 -5.7402,-21.42299 15.682955,15.682955 0 0 1 21.423,-5.74072 l 2.6965,-4.67053 a 21.166668,21.166668 0 0 0 -10.5379,-2.91402 z m 43.3405,0.0238 a 21.166668,21.166668 0 0 0 -11.5905,2.81171 l 2.76,4.78007 a 15.682955,15.682955 0 0 1 15.6652,-0.031 15.682955,15.682955 0 0 1 5.7402,21.42351 15.682955,15.682955 0 0 1 -21.4235,5.74021 15.682955,15.682955 0 0 1 -7.8062,-13.5816 h -5.4281 a 21.166668,21.166668 0 0 0 2.7451,10.58333 21.166668,21.166668 0 0 0 28.914,7.74733 21.166668,21.166668 0 0 0 7.7478,-28.914 21.166668,21.166668 0 0 0 -17.324,-10.55955 z" /><path
       id="path359"
       style="fill:#00ff00;fill-opacity:1;stroke-width:264.584;stroke-linejoin:round;paint-order:markers stroke fill"
       d="m -1677.0367,-336.10374 a 21.166668,21.166668 0 0 0 -17.3235,10.55956 21.166668,21.166668 0 0 0 7.7473,28.91399 l 2.742,-4.74907 a 15.682955,15.682955 0 0 1 -5.7402,-21.42296 15.682955,15.682955 0 0 1 12.8354,-7.82383 15.682955,15.682955 0 0 1 8.5875,2.08359 15.682955,15.682955 0 0 1 5.7408,21.42299 15.682955,15.682955 0 0 1 -5.7583,5.70972 l 2.7145,4.70101 a 21.166668,21.166668 0 0 0 7.7928,-7.66878 21.166668,21.166668 0 0 0 -7.7478,-28.91399 21.166668,21.166668 0 0 0 -11.5905,-2.81223 z m -20.1595,36.63807 a 21.166668,21.166668 0 0 0 -21.1667,21.16664 21.166668,21.166668 0 0 0 21.1667,21.16669 21.166668,21.166668 0 0 0 21.1667,-21.16667 h -5.4875 a 15.682955,15.682955 0 0 1 -2.0971,7.84138 15.682955,15.682955 0 0 1 -21.4235,5.74022 15.682955,15.682955 0 0 1 -5.7402,-21.42299 15.682955,15.682955 0 0 1 21.423,-5.74072 l 2.6965,-4.67053 a 21.166668,21.166668 0 0 0 -10.5379,-2.91402 z m 43.3405,0.0238 a 21.166668,21.166668 0 0 0 -11.5905,2.81171 l 2.76,4.78007 a 15.682955,15.682955 0 0 1 15.6652,-0.031 15.682955,15.682955 0 0 1 5.7402,21.42351 15.682955,15.682955 0 0 1 -21.4235,5.74021 15.682955,15.682955 0 0 1 -7.8062,-13.5816 h -5.4281 a 21.166668,21.166668 0 0 0 2.7451,10.58333 21.166668,21.166668 0 0 0 28.914,7.74733 21.166668,21.166668 0 0 0 7.7478,-28.914 21.166668,21.166668 0 0 0 -17.324,-10.55955 z" /><path
       id="path360"
       style="fill:#00ff00;fill-opacity:1;stroke-width:264.584;stroke-linejoin:round;paint-order:markers stroke fill"
       d="m -1789.22,-336.10374 a 21.166668,21.166668 0 0 0 -17.3235,10.55956 21.166668,21.166668 0 0 0 7.7473,28.91399 l 2.742,-4.74907 a 15.682955,15.682955 0 0 1 -5.7402,-21.42296 15.682955,15.682955 0 0 1 12.8354,-7.82383 15.682955,15.682955 0 0 1 8.5875,2.08359 15.682955,15.682955 0 0 1 5.7408,21.42299 15.682955,15.682955 0 0 1 -5.7583,5.70972 l 2.7145,4.70101 a 21.166668,21.166668 0 0 0 7.7928,-7.66878 21.166668,21.166668 0 0 0 -7.7478,-28.91399 21.166668,21.166668 0 0 0 -11.5905,-2.81223 z m -20.1595,36.63807 a 21.166668,21.166668 0 0 0 -21.1667,21.16664 21.166668,21.166668 0 0 0 21.1667,21.16669 21.166668,21.166668 0 0 0 21.1667,-21.16667 h -5.4875 a 15.682955,15.682955 0 0 1 -2.0971,7.84138 15.682955,15.682955 0 0 1 -21.4235,5.74022 15.682955,15.682955 0 0 1 -5.7402,-21.42299 15.682955,15.682955 0 0 1 21.423,-5.74072 l 2.6965,-4.67053 a 21.166668,21.166668 0 0 0 -10.5379,-2.91402 z m 43.3405,0.0238 a 21.166668,21.166668 0 0 0 -11.5905,2.81171 l 2.76,4.78007 a 15.682955,15.682955 0 0 1 15.6652,-0.031 15.682955,15.682955 0 0 1 5.7402,21.42351 15.682955,15.682955 0 0 1 -21.4235,5.74021 15.682955,15.682955 0 0 1 -7.8062,-13.5816 h -5.4281 a 21.166668,21.166668 0 0 0 2.7451,10.58333 21.166668,21.166668 0 0 0 28.914,7.74733 21.166668,21.166668 0 0 0 7.7478,-28.914 21.166668,21.166668 0 0 0 -17.324,-10.55955 z" /><path
       id="path361"
       style="fill:#00ff00;fill-opacity:1;stroke-width:264.584;stroke-linejoin:round;paint-order:markers stroke fill"
       d="m -1901.4033,-336.10374 a 21.166668,21.166668 0 0 0 -17.3235,10.55956 21.166668,21.166668 0 0 0 7.7473,28.91399 l 2.742,-4.74907 a 15.682955,15.682955 0 0 1 -5.7402,-21.42296 15.682955,15.682955 0 0 1 12.8354,-7.82383 15.682955,15.682955 0 0 1 8.5875,2.08359 15.682955,15.682955 0 0 1 5.7408,21.42299 15.682955,15.682955 0 0 1 -5.7583,5.70972 l 2.7145,4.70101 a 21.166668,21.166668 0 0 0 7.7928,-7.66878 21.166668,21.166668 0 0 0 -7.7478,-28.91399 21.166668,21.166668 0 0 0 -11.5905,-2.81223 z m -20.1595,36.63807 a 21.166668,21.166668 0 0 0 -21.1667,21.16664 21.166668,21.166668 0 0 0 21.1667,21.16669 21.166668,21.166668 0 0 0 21.1667,-21.16667 h -5.4875 a 15.682955,15.682955 0 0 1 -2.0971,7.84138 15.682955,15.682955 0 0 1 -21.4235,5.74022 15.682955,15.682955 0 0 1 -5.7402,-21.42299 15.682955,15.682955 0 0 1 21.423,-5.74072 l 2.6965,-4.67053 a 21.166668,21.166668 0 0 0 -10.5379,-2.91402 z m 43.3405,0.0238 a 21.166668,21.166668 0 0 0 -11.5905,2.81171 l 2.76,4.78007 a 15.682955,15.682955 0 0 1 15.6652,-0.031 15.682955,15.682955 0 0 1 5.7402,21.42351 15.682955,15.682955 0 0 1 -21.4235,5.74021 15.682955,15.682955 0 0 1 -7.8062,-13.5816 h -5.4281 a 21.166668,21.166668 0 0 0 2.7451,10.58333 21.166668,21.166668 0 0 0 28.914,7.74733 21.166668,21.166668 0 0 0 7.7478,-28.914 21.166668,21.166668 0 0 0 -17.324,-10.55955 z" /><path
       id="path362"
       style="fill:#00ff00;fill-opacity:1;stroke-width:264.584;stroke-linejoin:round;paint-order:markers stroke fill"
       d="m -2013.5866,-336.10374 a 21.166668,21.166668 0 0 0 -17.3235,10.55956 21.166668,21.166668 0 0 0 7.7473,28.91399 l 2.742,-4.74907 a 15.682955,15.682955 0 0 1 -5.7402,-21.42296 15.682955,15.682955 0 0 1 12.8354,-7.82383 15.682955,15.682955 0 0 1 8.5875,2.08359 15.682955,15.682955 0 0 1 5.7408,21.42299 15.682955,15.682955 0 0 1 -5.7583,5.70972 l 2.7145,4.70101 a 21.166668,21.166668 0 0 0 7.7928,-7.66878 21.166668,21.166668 0 0 0 -7.7478,-28.91399 21.166668,21.166668 0 0 0 -11.5905,-2.81223 z m -20.1595,36.63807 a 21.166668,21.166668 0 0 0 -21.1667,21.16664 21.166668,21.166668 0 0 0 21.1667,21.16669 21.166668,21.166668 0 0 0 21.1667,-21.16667 h -5.4875 a 15.682955,15.682955 0 0 1 -2.0971,7.84138 15.682955,15.682955 0 0 1 -21.4235,5.74022 15.682955,15.682955 0 0 1 -5.7402,-21.42299 15.682955,15.682955 0 0 1 21.423,-5.74072 l 2.6965,-4.67053 a 21.166668,21.166668 0 0 0 -10.5379,-2.91402 z m 43.3405,0.0238 a 21.166668,21.166668 0 0 0 -11.5905,2.81171 l 2.76,4.78007 a 15.682955,15.682955 0 0 1 15.6652,-0.031 15.682955,15.682955 0 0 1 5.7402,21.42351 15.682955,15.682955 0 0 1 -21.4235,5.74021 15.682955,15.682955 0 0 1 -7.8062,-13.5816 h -5.4281 a 21.166668,21.166668 0 0 0 2.7451,10.58333 21.166668,21.166668 0 0 0 28.914,7.74733 21.166668,21.166668 0 0 0 7.7478,-28.914 21.166668,21.166668 0 0 0 -17.324,-10.55955 z" /><path
       id="path363"
       style="fill:#00ff00;fill-opacity:1;stroke-width:264.584;stroke-linejoin:round;paint-order:markers stroke fill"
       d="m -1495.0035,-354.44239 a 21.166668,21.166668 0 0 1 -17.3235,-10.55956 21.166668,21.166668 0 0 1 7.7473,-28.91399 l 2.742,4.74907 a 15.682955,15.682955 0 0 0 -5.7402,21.42296 15.682955,15.682955 0 0 0 12.8354,7.82383 15.682955,15.682955 0 0 0 8.5875,-2.08359 15.682955,15.682955 0 0 0 5.7408,-21.42299 15.682955,15.682955 0 0 0 -5.7583,-5.70973 l 2.7145,-4.701 a 21.166668,21.166668 0 0 1 7.7928,7.66878 21.166668,21.166668 0 0 1 -7.7478,28.91399 21.166668,21.166668 0 0 1 -11.5905,2.81223 z m -20.1595,-36.63807 a 21.166668,21.166668 0 0 1 -21.1667,-21.16664 21.166668,21.166668 0 0 1 21.1667,-21.16669 21.166668,21.166668 0 0 1 21.1667,21.16667 h -5.4875 a 15.682955,15.682955 0 0 0 -2.0971,-7.84138 15.682955,15.682955 0 0 0 -21.4235,-5.74023 15.682955,15.682955 0 0 0 -5.7402,21.423 15.682955,15.682955 0 0 0 21.423,5.74072 l 2.6965,4.67052 a 21.166668,21.166668 0 0 1 -10.5379,2.91403 z m 43.3405,-0.0238 a 21.166668,21.166668 0 0 1 -11.5905,-2.81171 l 2.76,-4.78007 a 15.682955,15.682955 0 0 0 15.6652,0.031 15.682955,15.682955 0 0 0 5.7402,-21.42351 15.682955,15.682955 0 0 0 -21.4235,-5.74021 15.682955,15.682955 0 0 0 -7.8062,13.5816 h -5.4281 a 21.166668,21.166668 0 0 1 2.7451,-10.58334 21.166668,21.166668 0 0 1 28.914,-7.74733 21.166668,21.166668 0 0 1 7.7478,28.914 21.166668,21.166668 0 0 1 -17.324,10.55956 z" /><path
       id="path364"
       style="fill:#00ff00;fill-opacity:1;stroke-width:264.584;stroke-linejoin:round;paint-order:markers stroke fill"
       d="m -1607.1868,-354.44239 a 21.166668,21.166668 0 0 1 -17.3235,-10.55956 21.166668,21.166668 0 0 1 7.7473,-28.91399 l 2.742,4.74907 a 15.682955,15.682955 0 0 0 -5.7402,21.42296 15.682955,15.682955 0 0 0 12.8354,7.82383 15.682955,15.682955 0 0 0 8.5875,-2.08359 15.682955,15.682955 0 0 0 5.7408,-21.42299 15.682955,15.682955 0 0 0 -5.7583,-5.70973 l 2.7145,-4.701 a 21.166668,21.166668 0 0 1 7.7928,7.66878 21.166668,21.166668 0 0 1 -7.7478,28.91399 21.166668,21.166668 0 0 1 -11.5905,2.81223 z m -20.1595,-36.63807 a 21.166668,21.166668 0 0 1 -21.1667,-21.16664 21.166668,21.166668 0 0 1 21.1667,-21.16669 21.166668,21.166668 0 0 1 21.1667,21.16667 h -5.4875 a 15.682955,15.682955 0 0 0 -2.0971,-7.84138 15.682955,15.682955 0 0 0 -21.4235,-5.74023 15.682955,15.682955 0 0 0 -5.7402,21.423 15.682955,15.682955 0 0 0 21.423,5.74072 l 2.6965,4.67052 a 21.166668,21.166668 0 0 1 -10.5379,2.91403 z m 43.3405,-0.0238 a 21.166668,21.166668 0 0 1 -11.5905,-2.81171 l 2.76,-4.78007 a 15.682955,15.682955 0 0 0 15.6652,0.031 15.682955,15.682955 0 0 0 5.7402,-21.42351 15.682955,15.682955 0 0 0 -21.4235,-5.74021 15.682955,15.682955 0 0 0 -7.8062,13.5816 h -5.4281 a 21.166668,21.166668 0 0 1 2.7451,-10.58334 21.166668,21.166668 0 0 1 28.914,-7.74733 21.166668,21.166668 0 0 1 7.7478,28.914 21.166668,21.166668 0 0 1 -17.324,10.55956 z" /><path
       id="path365"
       style="fill:#00ff00;fill-opacity:1;stroke-width:264.584;stroke-linejoin:round;paint-order:markers stroke fill"
       d="m -1719.3701,-354.44239 a 21.166668,21.166668 0 0 1 -17.3235,-10.55956 21.166668,21.166668 0 0 1 7.7473,-28.91399 l 2.742,4.74907 a 15.682955,15.682955 0 0 0 -5.7402,21.42296 15.682955,15.682955 0 0 0 12.8354,7.82383 15.682955,15.682955 0 0 0 8.5875,-2.08359 15.682955,15.682955 0 0 0 5.7408,-21.42299 15.682955,15.682955 0 0 0 -5.7583,-5.70973 l 2.7145,-4.701 a 21.166668,21.166668 0 0 1 7.7928,7.66878 21.166668,21.166668 0 0 1 -7.7478,28.91399 21.166668,21.166668 0 0 1 -11.5905,2.81223 z m -20.1595,-36.63807 a 21.166668,21.166668 0 0 1 -21.1667,-21.16664 21.166668,21.166668 0 0 1 21.1667,-21.16669 21.166668,21.166668 0 0 1 21.1667,21.16667 h -5.4875 a 15.682955,15.682955 0 0 0 -2.0971,-7.84138 15.682955,15.682955 0 0 0 -21.4235,-5.74023 15.682955,15.682955 0 0 0 -5.7402,21.423 15.682955,15.682955 0 0 0 21.423,5.74072 l 2.6965,4.67052 a 21.166668,21.166668 0 0 1 -10.5379,2.91403 z m 43.3405,-0.0238 a 21.166668,21.166668 0 0 1 -11.5905,-2.81171 l 2.76,-4.78007 a 15.682955,15.682955 0 0 0 15.6652,0.031 15.682955,15.682955 0 0 0 5.7402,-21.42351 15.682955,15.682955 0 0 0 -21.4235,-5.74021 15.682955,15.682955 0 0 0 -7.8062,13.5816 h -5.4281 a 21.166668,21.166668 0 0 1 2.7451,-10.58334 21.166668,21.166668 0 0 1 28.914,-7.74733 21.166668,21.166668 0 0 1 7.7478,28.914 21.166668,21.166668 0 0 1 -17.324,10.55956 z" /><path
       id="path366"
       style="fill:#00ff00;fill-opacity:1;stroke-width:264.584;stroke-linejoin:round;paint-order:markers stroke fill"
       d="m -1831.5534,-354.44239 a 21.166668,21.166668 0 0 1 -17.3235,-10.55956 21.166668,21.166668 0 0 1 7.7473,-28.91399 l 2.742,4.74907 a 15.682955,15.682955 0 0 0 -5.7402,21.42296 15.682955,15.682955 0 0 0 12.8354,7.82383 15.682955,15.682955 0 0 0 8.5875,-2.08359 15.682955,15.682955 0 0 0 5.7408,-21.42299 15.682955,15.682955 0 0 0 -5.7583,-5.70973 l 2.7145,-4.701 a 21.166668,21.166668 0 0 1 7.7928,7.66878 21.166668,21.166668 0 0 1 -7.7478,28.91399 21.166668,21.166668 0 0 1 -11.5905,2.81223 z m -20.1595,-36.63807 a 21.166668,21.166668 0 0 1 -21.1667,-21.16664 21.166668,21.166668 0 0 1 21.1667,-21.16669 21.166668,21.166668 0 0 1 21.1667,21.16667 h -5.4875 a 15.682955,15.682955 0 0 0 -2.0971,-7.84138 15.682955,15.682955 0 0 0 -21.4235,-5.74023 15.682955,15.682955 0 0 0 -5.7402,21.423 15.682955,15.682955 0 0 0 21.423,5.74072 l 2.6965,4.67052 a 21.166668,21.166668 0 0 1 -10.5379,2.91403 z m 43.3405,-0.0238 a 21.166668,21.166668 0 0 1 -11.5905,-2.81171 l 2.76,-4.78007 a 15.682955,15.682955 0 0 0 15.6652,0.031 15.682955,15.682955 0 0 0 5.7402,-21.42351 15.682955,15.682955 0 0 0 -21.4235,-5.74021 15.682955,15.682955 0 0 0 -7.8062,13.5816 h -5.4281 a 21.166668,21.166668 0 0 1 2.7451,-10.58334 21.166668,21.166668 0 0 1 28.914,-7.74733 21.166668,21.166668 0 0 1 7.7478,28.914 21.166668,21.166668 0 0 1 -17.324,10.55956 z" /><path
       id="path367"
       style="fill:#00ff00;fill-opacity:1;stroke-width:264.584;stroke-linejoin:round;paint-order:markers stroke fill"
       d="m -1943.7367,-354.44239 a 21.166668,21.166668 0 0 1 -17.3235,-10.55956 21.166668,21.166668 0 0 1 7.7473,-28.91399 l 2.742,4.74907 a 15.682955,15.682955 0 0 0 -5.7402,21.42296 15.682955,15.682955 0 0 0 12.8354,7.82383 15.682955,15.682955 0 0 0 8.5875,-2.08359 15.682955,15.682955 0 0 0 5.7408,-21.42299 15.682955,15.682955 0 0 0 -5.7583,-5.70973 l 2.7145,-4.701 a 21.166668,21.166668 0 0 1 7.7928,7.66878 21.166668,21.166668 0 0 1 -7.7478,28.91399 21.166668,21.166668 0 0 1 -11.5905,2.81223 z m -20.1595,-36.63807 a 21.166668,21.166668 0 0 1 -21.1667,-21.16664 21.166668,21.166668 0 0 1 21.1667,-21.16669 21.166668,21.166668 0 0 1 21.1667,21.16667 h -5.4875 a 15.682955,15.682955 0 0 0 -2.0971,-7.84138 15.682955,15.682955 0 0 0 -21.4235,-5.74023 15.682955,15.682955 0 0 0 -5.7402,21.423 15.682955,15.682955 0 0 0 21.423,5.74072 l 2.6965,4.67052 a 21.166668,21.166668 0 0 1 -10.5379,2.91403 z m 43.3405,-0.0238 a 21.166668,21.166668 0 0 1 -11.5905,-2.81171 l 2.76,-4.78007 a 15.682955,15.682955 0 0 0 15.6652,0.031 15.682955,15.682955 0 0 0 5.7402,-21.42351 15.682955,15.682955 0 0 0 -21.4235,-5.74021 15.682955,15.682955 0 0 0 -7.8062,13.5816 h -5.4281 a 21.166668,21.166668 0 0 1 2.7451,-10.58334 21.166668,21.166668 0 0 1 28.914,-7.74733 21.166668,21.166668 0 0 1 7.7478,28.914 21.166668,21.166668 0 0 1 -17.324,10.55956 z" /><path
       id="path368"
       style="fill:#aa0000;fill-opacity:1;stroke-width:264.584;stroke-linejoin:round;paint-order:markers stroke fill"
       d="m -2055.92,-354.44239 a 21.166668,21.166668 0 0 1 -17.3235,-10.55956 21.166668,21.166668 0 0 1 7.7473,-28.91399 l 2.742,4.74907 a 15.682955,15.682955 0 0 0 -5.7402,21.42296 15.682955,15.682955 0 0 0 12.8354,7.82383 15.682955,15.682955 0 0 0 8.5875,-2.08359 15.682955,15.682955 0 0 0 5.7408,-21.42299 15.682955,15.682955 0 0 0 -5.7583,-5.70973 l 2.7145,-4.701 a 21.166668,21.166668 0 0 1 7.7928,7.66878 21.166668,21.166668 0 0 1 -7.7478,28.91399 21.166668,21.166668 0 0 1 -11.5905,2.81223 z m -20.1595,-36.63807 a 21.166668,21.166668 0 0 1 -21.1667,-21.16664 21.166668,21.166668 0 0 1 21.1667,-21.16669 21.166668,21.166668 0 0 1 21.1667,21.16667 h -5.4875 a 15.682955,15.682955 0 0 0 -2.0971,-7.84138 15.682955,15.682955 0 0 0 -21.4235,-5.74023 15.682955,15.682955 0 0 0 -5.7402,21.423 15.682955,15.682955 0 0 0 21.423,5.74072 l 2.6965,4.67052 a 21.166668,21.166668 0 0 1 -10.5379,2.91403 z m 43.3405,-0.0238 a 21.166668,21.166668 0 0 1 -11.5905,-2.81171 l 2.76,-4.78007 a 15.682955,15.682955 0 0 0 15.6652,0.031 15.682955,15.682955 0 0 0 5.7402,-21.42351 15.682955,15.682955 0 0 0 -21.4235,-5.74021 15.682955,15.682955 0 0 0 -7.8062,13.5816 h -5.4281 a 21.166668,21.166668 0 0 1 2.7451,-10.58334 21.166668,21.166668 0 0 1 28.914,-7.74733 21.166668,21.166668 0 0 1 7.7478,28.914 21.166668,21.166668 0 0 1 -17.324,10.55956 z" /><path
       id="path363-8"
       style="fill:#b2b5f2;fill-opacity:0.44664031;stroke-width:264.584;stroke-linejoin:round;paint-order:markers stroke fill"
       d="m -1171.2193,-298.21842 a 21.166668,21.166668 0 0 1 -17.3235,-10.55956 21.166668,21.166668 0 0 1 7.7473,-28.91399 l 2.742,4.74907 a 15.682955,15.682955 0 0 0 -5.7402,21.42296 15.682955,15.682955 0 0 0 12.8354,7.82383 15.682955,15.682955 0 0 0 8.5875,-2.08359 15.682955,15.682955 0 0 0 5.7408,-21.42299 15.682955,15.682955 0 0 0 -5.7583,-5.70973 l 2.7145,-4.701 a 21.166668,21.166668 0 0 1 7.7928,7.66878 21.166668,21.166668 0 0 1 -7.7478,28.91399 21.166668,21.166668 0 0 1 -11.5905,2.81223 z m -20.1595,-36.63807 a 21.166668,21.166668 0 0 1 -21.1667,-21.16664 21.166668,21.166668 0 0 1 21.1667,-21.16669 21.166668,21.166668 0 0 1 21.1667,21.16667 h -5.4875 a 15.682955,15.682955 0 0 0 -2.0971,-7.84138 15.682955,15.682955 0 0 0 -21.4235,-5.74023 15.682955,15.682955 0 0 0 -5.7402,21.423 15.682955,15.682955 0 0 0 21.423,5.74072 l 2.6965,4.67052 a 21.166668,21.166668 0 0 1 -10.5379,2.91403 z m 43.3405,-0.0238 a 21.166668,21.166668 0 0 1 -11.5905,-2.81171 l 2.76,-4.78007 a 15.682955,15.682955 0 0 0 15.6652,0.031 15.682955,15.682955 0 0 0 5.7402,-21.42351 15.682955,15.682955 0 0 0 -21.4235,-5.74021 15.682955,15.682955 0 0 0 -7.8062,13.5816 h -5.4281 a 21.166668,21.166668 0 0 1 2.7451,-10.58334 21.166668,21.166668 0 0 1 28.914,-7.74733 21.166668,21.166668 0 0 1 7.7478,28.914 21.166668,21.166668 0 0 1 -17.324,10.55956 z"
       inkscape:export-filename="pattern.svg"
       inkscape:export-xdpi="96"
       inkscape:export-ydpi="96" /><path
       id="path3"
       style="fill:#b2b5f2;fill-opacity:0.44664031;stroke-width:264.584;stroke-linejoin:round;paint-order:markers stroke fill"
       d="m -1001.8856,-298.21842 a 21.166668,21.166668 0 0 1 -17.3235,-10.55956 21.166668,21.166668 0 0 1 7.7473,-28.91399 l 2.742,4.74907 a 15.682955,15.682955 0 0 0 -5.7402,21.42296 15.682955,15.682955 0 0 0 12.8354,7.82383 15.682955,15.682955 0 0 0 8.58756,-2.08359 15.682955,15.682955 0 0 0 5.74076,-21.42299 15.682955,15.682955 0 0 0 -5.75826,-5.70973 l 2.71446,-4.701 a 21.166668,21.166668 0 0 1 7.7928,7.66878 21.166668,21.166668 0 0 1 -7.7478,28.91399 21.166668,21.166668 0 0 1 -11.59052,2.81223 z m -20.1595,-36.63807 a 21.166668,21.166668 0 0 1 -21.1667,-21.16664 21.166668,21.166668 0 0 1 21.1667,-21.16669 21.166668,21.166668 0 0 1 21.1667,21.16667 h -5.4875 a 15.682955,15.682955 0 0 0 -2.0971,-7.84138 15.682955,15.682955 0 0 0 -21.4235,-5.74023 15.682955,15.682955 0 0 0 -5.7402,21.423 15.682955,15.682955 0 0 0 21.423,5.74072 l 2.6965,4.67052 a 21.166668,21.166668 0 0 1 -10.5379,2.91403 z m 43.34052,-0.0238 a 21.166668,21.166668 0 0 1 -11.5905,-2.81171 l 2.76,-4.78007 a 15.682955,15.682955 0 0 0 15.6652,0.031 15.682955,15.682955 0 0 0 5.7402,-21.42351 15.682955,15.682955 0 0 0 -21.4235,-5.74021 15.682955,15.682955 0 0 0 -7.80616,13.5816 h -5.42816 a 21.166668,21.166668 0 0 1 2.74516,-10.58334 21.166668,21.166668 0 0 1 28.91396,-7.74733 21.166668,21.166668 0 0 1 7.7478,28.914 21.166668,21.166668 0 0 1 -17.324,10.55956 z" /><path
       id="path11"
       style="fill:#b2b5f2;fill-opacity:0.44664031;stroke-width:264.584;stroke-linejoin:round;paint-order:markers stroke fill"
       d="m -832.55188,-298.21842 a 21.166668,21.166668 0 0 1 -17.3235,-10.55956 21.166668,21.166668 0 0 1 7.7473,-28.91399 l 2.742,4.74907 a 15.682955,15.682955 0 0 0 -5.7402,21.42296 15.682955,15.682955 0 0 0 12.8354,7.82383 15.682955,15.682955 0 0 0 8.5875,-2.08359 15.682955,15.682955 0 0 0 5.7408,-21.42299 15.682955,15.682955 0 0 0 -5.7583,-5.70973 l 2.7145,-4.701 a 21.166668,21.166668 0 0 1 7.7928,7.66878 21.166668,21.166668 0 0 1 -7.7478,28.91399 21.166668,21.166668 0 0 1 -11.5905,2.81223 z m -20.1595,-36.63807 a 21.166668,21.166668 0 0 1 -21.1667,-21.16664 21.166668,21.166668 0 0 1 21.1667,-21.16669 21.166668,21.166668 0 0 1 21.1667,21.16667 h -5.4875 a 15.682955,15.682955 0 0 0 -2.0971,-7.84138 15.682955,15.682955 0 0 0 -21.4235,-5.74023 15.682955,15.682955 0 0 0 -5.7402,21.423 15.682955,15.682955 0 0 0 21.423,5.74072 l 2.6965,4.67052 a 21.166668,21.166668 0 0 1 -10.5379,2.91403 z m 43.3405,-0.0238 a 21.166668,21.166668 0 0 1 -11.5905,-2.81171 l 2.76,-4.78007 a 15.682955,15.682955 0 0 0 15.6652,0.031 15.682955,15.682955 0 0 0 5.7402,-21.42351 15.682955,15.682955 0 0 0 -21.4235,-5.74021 15.682955,15.682955 0 0 0 -7.8062,13.5816 h -5.4281 a 21.166668,21.166668 0 0 1 2.7451,-10.58334 21.166668,21.166668 0 0 1 28.914,-7.74733 21.166668,21.166668 0 0 1 7.7478,28.914 21.166668,21.166668 0 0 1 -17.324,10.55956 z" /><path
       id="path12"
       style="fill:#b2b5f2;fill-opacity:0.44664031;stroke-width:264.584;stroke-linejoin:round;paint-order:markers stroke fill"
       d="m -663.21818,-298.21842 a 21.166668,21.166668 0 0 1 -17.3235,-10.55956 21.166668,21.166668 0 0 1 7.7473,-28.91399 l 2.742,4.74907 a 15.682955,15.682955 0 0 0 -5.7402,21.42296 15.682955,15.682955 0 0 0 12.8354,7.82383 15.682955,15.682955 0 0 0 8.58756,-2.08359 15.682955,15.682955 0 0 0 5.74076,-21.42299 15.682955,15.682955 0 0 0 -5.75826,-5.70973 l 2.71446,-4.701 a 21.166668,21.166668 0 0 1 7.7928,7.66878 21.166668,21.166668 0 0 1 -7.7478,28.91399 21.166668,21.166668 0 0 1 -11.59052,2.81223 z m -20.1595,-36.63807 a 21.166668,21.166668 0 0 1 -21.1667,-21.16664 21.166668,21.166668 0 0 1 21.1667,-21.16669 21.166668,21.166668 0 0 1 21.1667,21.16667 h -5.4875 a 15.682955,15.682955 0 0 0 -2.0971,-7.84138 15.682955,15.682955 0 0 0 -21.4235,-5.74023 15.682955,15.682955 0 0 0 -5.7402,21.423 15.682955,15.682955 0 0 0 21.423,5.74072 l 2.6965,4.67052 a 21.166668,21.166668 0 0 1 -10.5379,2.91403 z m 43.34052,-0.0238 a 21.166668,21.166668 0 0 1 -11.5905,-2.81171 l 2.76,-4.78007 a 15.682955,15.682955 0 0 0 15.6652,0.031 15.682955,15.682955 0 0 0 5.7402,-21.42351 15.682955,15.682955 0 0 0 -21.4235,-5.74021 15.682955,15.682955 0 0 0 -7.80616,13.5816 h -5.42816 a 21.166668,21.166668 0 0 1 2.74516,-10.58334 21.166668,21.166668 0 0 1 28.91396,-7.74733 21.166668,21.166668 0 0 1 7.7478,28.914 21.166668,21.166668 0 0 1 -17.324,10.55956 z" /><path
       id="path15"
       style="fill:#b2b5f2;fill-opacity:0.44664031;stroke-width:264.584;stroke-linejoin:round;paint-order:markers stroke fill"
       d="m -745.87063,-301.1611 a 21.166668,21.166668 0 0 1 17.3235,10.55956 21.166668,21.166668 0 0 1 -7.7473,28.91399 l -2.742,-4.74907 a 15.682955,15.682955 0 0 0 5.7402,-21.42296 15.682955,15.682955 0 0 0 -12.8354,-7.82383 15.682955,15.682955 0 0 0 -8.5875,2.08359 15.682955,15.682955 0 0 0 -5.7408,21.42299 15.682955,15.682955 0 0 0 5.7583,5.70973 l -2.7145,4.701 a 21.166668,21.166668 0 0 1 -7.7928,-7.66878 21.166668,21.166668 0 0 1 7.7478,-28.91399 21.166668,21.166668 0 0 1 11.5905,-2.81223 z m 20.1595,36.63807 a 21.166668,21.166668 0 0 1 21.1667,21.16664 21.166668,21.166668 0 0 1 -21.1667,21.16669 21.166668,21.166668 0 0 1 -21.1667,-21.16667 h 5.4875 a 15.682955,15.682955 0 0 0 2.0971,7.84138 15.682955,15.682955 0 0 0 21.4235,5.74023 15.682955,15.682955 0 0 0 5.7402,-21.423 15.682955,15.682955 0 0 0 -21.423,-5.74072 l -2.6965,-4.67052 a 21.166668,21.166668 0 0 1 10.5379,-2.91403 z m -43.3405,0.0238 a 21.166668,21.166668 0 0 1 11.5905,2.81171 l -2.76,4.78007 a 15.682955,15.682955 0 0 0 -15.6652,-0.031 15.682955,15.682955 0 0 0 -5.7402,21.42351 15.682955,15.682955 0 0 0 21.4235,5.74021 15.682955,15.682955 0 0 0 7.8062,-13.5816 h 5.4281 a 21.166668,21.166668 0 0 1 -2.7451,10.58334 21.166668,21.166668 0 0 1 -28.914,7.74733 21.166668,21.166668 0 0 1 -7.7478,-28.914 21.166668,21.166668 0 0 1 17.324,-10.55956 z" /><path
       id="path18"
       style="fill:#b2b5f2;fill-opacity:0.44664031;stroke-width:264.584;stroke-linejoin:round;paint-order:markers stroke fill"
       d="m -915.20434,-301.1611 a 21.166668,21.166668 0 0 1 17.3235,10.55956 21.166668,21.166668 0 0 1 -7.7473,28.91399 l -2.742,-4.74907 a 15.682955,15.682955 0 0 0 5.7402,-21.42296 15.682955,15.682955 0 0 0 -12.8354,-7.82383 15.682955,15.682955 0 0 0 -8.5875,2.08359 15.682955,15.682955 0 0 0 -5.7408,21.42299 15.682955,15.682955 0 0 0 5.7583,5.70973 l -2.7145,4.701 a 21.166668,21.166668 0 0 1 -7.7928,-7.66878 21.166668,21.166668 0 0 1 7.7478,-28.91399 21.166668,21.166668 0 0 1 11.5905,-2.81223 z m 20.1595,36.63807 a 21.166668,21.166668 0 0 1 21.1667,21.16664 21.166668,21.166668 0 0 1 -21.1667,21.16669 21.166668,21.166668 0 0 1 -21.1667,-21.16667 h 5.4875 a 15.682955,15.682955 0 0 0 2.0971,7.84138 15.682955,15.682955 0 0 0 21.4235,5.74023 15.682955,15.682955 0 0 0 5.7402,-21.423 15.682955,15.682955 0 0 0 -21.423,-5.74072 l -2.6965,-4.67052 a 21.166668,21.166668 0 0 1 10.5379,-2.91403 z m -43.3405,0.0238 a 21.166668,21.166668 0 0 1 11.5905,2.81171 l -2.76,4.78007 a 15.682955,15.682955 0 0 0 -15.6652,-0.031 15.682955,15.682955 0 0 0 -5.7402,21.42351 15.682955,15.682955 0 0 0 21.4235,5.74021 15.682955,15.682955 0 0 0 7.8062,-13.5816 h 5.4281 a 21.166668,21.166668 0 0 1 -2.7451,10.58334 21.166668,21.166668 0 0 1 -28.914,7.74733 21.166668,21.166668 0 0 1 -7.7478,-28.914 21.166668,21.166668 0 0 1 17.324,-10.55956 z" /><path
       id="path19"
       style="fill:#b2b5f2;fill-opacity:0.44664031;stroke-width:264.584;stroke-linejoin:round;paint-order:markers stroke fill"
       d="m -1084.538,-301.1611 a 21.166668,21.166668 0 0 1 17.3235,10.55956 21.166668,21.166668 0 0 1 -7.7473,28.91399 l -2.742,-4.74907 a 15.682955,15.682955 0 0 0 5.7402,-21.42296 15.682955,15.682955 0 0 0 -12.8354,-7.82383 15.682955,15.682955 0 0 0 -8.5876,2.08359 15.682955,15.682955 0 0 0 -5.7408,21.42299 15.682955,15.682955 0 0 0 5.7583,5.70973 l -2.7145,4.701 a 21.166668,21.166668 0 0 1 -7.7928,-7.66878 21.166668,21.166668 0 0 1 7.7478,-28.91399 21.166668,21.166668 0 0 1 11.5906,-2.81223 z m 20.1595,36.63807 a 21.166668,21.166668 0 0 1 21.1667,21.16664 21.166668,21.166668 0 0 1 -21.1667,21.16669 21.166668,21.166668 0 0 1 -21.1667,-21.16667 h 5.4875 a 15.682955,15.682955 0 0 0 2.0971,7.84138 15.682955,15.682955 0 0 0 21.4235,5.74023 15.682955,15.682955 0 0 0 5.7402,-21.423 15.682955,15.682955 0 0 0 -21.423,-5.74072 l -2.6965,-4.67052 a 21.166668,21.166668 0 0 1 10.5379,-2.91403 z m -43.3406,0.0238 a 21.166668,21.166668 0 0 1 11.5905,2.81171 l -2.76,4.78007 a 15.682955,15.682955 0 0 0 -15.6652,-0.031 15.682955,15.682955 0 0 0 -5.7402,21.42351 15.682955,15.682955 0 0 0 21.4235,5.74021 15.682955,15.682955 0 0 0 7.8062,-13.5816 h 5.4282 a 21.166668,21.166668 0 0 1 -2.7452,10.58334 21.166668,21.166668 0 0 1 -28.914,7.74733 21.166668,21.166668 0 0 1 -7.7478,-28.914 21.166668,21.166668 0 0 1 17.324,-10.55956 z" /><path
       id="path21"
       style="fill:#b2b5f2;fill-opacity:0.44664031;stroke-width:264.584;stroke-linejoin:round;paint-order:markers stroke fill"
       d="m -576.53689,-301.1611 a 21.166668,21.166668 0 0 1 17.3235,10.55956 21.166668,21.166668 0 0 1 -7.7473,28.91399 l -2.742,-4.74907 a 15.682955,15.682955 0 0 0 5.7402,-21.42296 15.682955,15.682955 0 0 0 -12.8354,-7.82383 15.682955,15.682955 0 0 0 -8.5875,2.08359 15.682955,15.682955 0 0 0 -5.7408,21.42299 15.682955,15.682955 0 0 0 5.7583,5.70973 l -2.7145,4.701 a 21.166668,21.166668 0 0 1 -7.7928,-7.66878 21.166668,21.166668 0 0 1 7.7478,-28.91399 21.166668,21.166668 0 0 1 11.5905,-2.81223 z m 20.1595,36.63807 a 21.166668,21.166668 0 0 1 21.1667,21.16664 21.166668,21.166668 0 0 1 -21.1667,21.16669 21.166668,21.166668 0 0 1 -21.1667,-21.16667 h 5.4875 a 15.682955,15.682955 0 0 0 2.0971,7.84138 15.682955,15.682955 0 0 0 21.4235,5.74023 15.682955,15.682955 0 0 0 5.7402,-21.423 15.682955,15.682955 0 0 0 -21.423,-5.74072 l -2.6965,-4.67052 a 21.166668,21.166668 0 0 1 10.5379,-2.91403 z m -43.3405,0.0238 a 21.166668,21.166668 0 0 1 11.5905,2.81171 l -2.76,4.78007 a 15.682955,15.682955 0 0 0 -15.6652,-0.031 15.682955,15.682955 0 0 0 -5.7402,21.42351 15.682955,15.682955 0 0 0 21.4235,5.74021 15.682955,15.682955 0 0 0 7.8062,-13.5816 h 5.4281 a 21.166668,21.166668 0 0 1 -2.7451,10.58334 21.166668,21.166668 0 0 1 -28.914,7.74733 21.166668,21.166668 0 0 1 -7.7478,-28.914 21.166668,21.166668 0 0 1 17.324,-10.55956 z" /></g></svg>
