<?xml version="1.0" encoding="UTF-8" standalone="no"?>
<!-- Created with Inkscape (http://www.inkscape.org/) -->

<svg
   width="424.52817mm"
   height="80.231346mm"
   viewBox="0 0 424.52817 80.231346"
   version="1.1"
   id="svg1"
   inkscape:version="1.3 (0e150ed6c4, 2023-07-21)"
   xml:space="preserve"
   sodipodi:docname="pisay.svg"
   inkscape:export-filename="OneDrive\Pictures\Saved Pictures\pisay.png"
   inkscape:export-xdpi="96"
   inkscape:export-ydpi="96"
   xmlns:inkscape="http://www.inkscape.org/namespaces/inkscape"
   xmlns:sodipodi="http://sodipodi.sourceforge.net/DTD/sodipodi-0.dtd"
   xmlns="http://www.w3.org/2000/svg"
   xmlns:svg="http://www.w3.org/2000/svg"><sodipodi:namedview
     id="namedview1"
     pagecolor="#ffffff"
     bordercolor="#eeeeee"
     borderopacity="0"
     inkscape:showpageshadow="0"
     inkscape:pageopacity="0"
     inkscape:pagecheckerboard="0"
     inkscape:deskcolor="#ffffff"
     inkscape:document-units="px"
     showguides="true"
     inkscape:zoom="0.1767767"
     inkscape:cx="-890.95454"
     inkscape:cy="384.66609"
     inkscape:window-width="1366"
     inkscape:window-height="745"
     inkscape:window-x="-8"
     inkscape:window-y="-8"
     inkscape:window-maximized="1"
     inkscape:current-layer="layer1"
     showgrid="false"><sodipodi:guide
       position="-153.92885,501.81172"
       orientation="0,-1"
       id="guide1"
       inkscape:locked="false" /><sodipodi:guide
       position="-155.25177,443.60338"
       orientation="0,-1"
       id="guide2"
       inkscape:locked="false" /><sodipodi:guide
       position="-140.1597,472.70755"
       orientation="1,0"
       id="guide16"
       inkscape:locked="false" /><sodipodi:guide
       position="-111.05557,472.70755"
       orientation="1,0"
       id="guide17"
       inkscape:locked="false" /><sodipodi:guide
       position="-132.40484,487.25965"
       orientation="0,-1"
       id="guide18"
       inkscape:locked="false" /><sodipodi:guide
       position="-125.60762,458.15546"
       orientation="0,-1"
       id="guide19"
       inkscape:locked="false" /><sodipodi:guide
       position="69.838004,-5.6677189"
       orientation="0,-1"
       id="guide4"
       inkscape:locked="false" /><sodipodi:guide
       position="83.308384,-163.17723"
       orientation="0,-1"
       id="guide5"
       inkscape:locked="false" /><sodipodi:guide
       position="4173.0814,-8055.5271"
       orientation="1,0"
       id="guide46"
       inkscape:locked="false" /><sodipodi:guide
       position="3952.8453,-5802.7503"
       orientation="0,-1"
       id="guide47"
       inkscape:locked="false" /><sodipodi:guide
       position="-727.72363,651.98493"
       orientation="0,-1"
       id="guide188"
       inkscape:locked="false" /><sodipodi:guide
       position="-698.16097,615.32319"
       orientation="0,-1"
       id="guide189"
       inkscape:locked="false" /><sodipodi:guide
       position="84.666634,218.00491"
       orientation="0,-1"
       id="guide235"
       inkscape:locked="false" /><sodipodi:guide
       position="21.166674,296.99999"
       orientation="0,-1"
       id="guide236"
       inkscape:locked="false" /></sodipodi:namedview><defs
     id="defs1"><inkscape:path-effect
       effect="bspline"
       id="path-effect234"
       is_visible="true"
       lpeversion="1.3"
       weight="33.333333"
       steps="2"
       helper_size="0"
       apply_no_weight="true"
       apply_with_weight="true"
       only_selected="false"
       uniform="false" /><inkscape:path-effect
       effect="bspline"
       id="path-effect232"
       is_visible="true"
       lpeversion="1.3"
       weight="33.333333"
       steps="2"
       helper_size="0"
       apply_no_weight="true"
       apply_with_weight="true"
       only_selected="false"
       uniform="false" /><inkscape:path-effect
       effect="bspline"
       id="path-effect230"
       is_visible="true"
       lpeversion="1.3"
       weight="33.333333"
       steps="2"
       helper_size="0"
       apply_no_weight="true"
       apply_with_weight="true"
       only_selected="false"
       uniform="false" /><inkscape:path-effect
       effect="bspline"
       id="path-effect228"
       is_visible="true"
       lpeversion="1.3"
       weight="33.333333"
       steps="2"
       helper_size="0"
       apply_no_weight="true"
       apply_with_weight="true"
       only_selected="false"
       uniform="false" /><inkscape:path-effect
       effect="bspline"
       id="path-effect226"
       is_visible="true"
       lpeversion="1.3"
       weight="33.333333"
       steps="2"
       helper_size="0"
       apply_no_weight="true"
       apply_with_weight="true"
       only_selected="false"
       uniform="false" /><inkscape:path-effect
       effect="bspline"
       id="path-effect224"
       is_visible="true"
       lpeversion="1.3"
       weight="33.333333"
       steps="2"
       helper_size="0"
       apply_no_weight="true"
       apply_with_weight="true"
       only_selected="false"
       uniform="false" /><inkscape:path-effect
       effect="bspline"
       id="path-effect222"
       is_visible="true"
       lpeversion="1.3"
       weight="33.333333"
       steps="2"
       helper_size="0"
       apply_no_weight="true"
       apply_with_weight="true"
       only_selected="false"
       uniform="false" /><inkscape:path-effect
       effect="bspline"
       id="path-effect220"
       is_visible="true"
       lpeversion="1.3"
       weight="33.333333"
       steps="2"
       helper_size="0"
       apply_no_weight="true"
       apply_with_weight="true"
       only_selected="false"
       uniform="false" /><inkscape:path-effect
       effect="bspline"
       id="path-effect218"
       is_visible="true"
       lpeversion="1.3"
       weight="33.333333"
       steps="2"
       helper_size="0"
       apply_no_weight="true"
       apply_with_weight="true"
       only_selected="false"
       uniform="false" /><inkscape:path-effect
       effect="bspline"
       id="path-effect216"
       is_visible="true"
       lpeversion="1.3"
       weight="33.333333"
       steps="2"
       helper_size="0"
       apply_no_weight="true"
       apply_with_weight="true"
       only_selected="false"
       uniform="false" /><inkscape:path-effect
       effect="bspline"
       id="path-effect214"
       is_visible="true"
       lpeversion="1.3"
       weight="33.333333"
       steps="2"
       helper_size="0"
       apply_no_weight="true"
       apply_with_weight="true"
       only_selected="false"
       uniform="false" /><inkscape:path-effect
       effect="bspline"
       id="path-effect212"
       is_visible="true"
       lpeversion="1.3"
       weight="33.333333"
       steps="2"
       helper_size="0"
       apply_no_weight="true"
       apply_with_weight="true"
       only_selected="false"
       uniform="false" /><inkscape:path-effect
       effect="bspline"
       id="path-effect210"
       is_visible="true"
       lpeversion="1.3"
       weight="33.333333"
       steps="2"
       helper_size="0"
       apply_no_weight="true"
       apply_with_weight="true"
       only_selected="false"
       uniform="false" /><inkscape:path-effect
       effect="bspline"
       id="path-effect208"
       is_visible="true"
       lpeversion="1.3"
       weight="33.333333"
       steps="2"
       helper_size="0"
       apply_no_weight="true"
       apply_with_weight="true"
       only_selected="false"
       uniform="false" /></defs><g
     inkscape:label="Layer 1"
     inkscape:groupmode="layer"
     id="layer1"
     transform="translate(-326.78996,-348.95754)"><g
       id="g234"><circle
         style="fill:#9bf6ff;fill-opacity:1;stroke-width:264.584;stroke-linejoin:round;paint-order:markers stroke fill"
         id="circle5"
         cx="135.97533"
         cy="-504.73227"
         r="21.166668"
         transform="rotate(120)" /><path
         style="fill:#333333;fill-opacity:1;stroke-width:264.584;stroke-linejoin:round;paint-order:markers stroke fill"
         id="path143"
         sodipodi:type="arc"
         sodipodi:cx="135.97533"
         sodipodi:cy="504.73224"
         sodipodi:rx="21.166668"
         sodipodi:ry="21.166668"
         sodipodi:start="3.1415927"
         sodipodi:end="0"
         sodipodi:arc-type="slice"
         d="m 114.80866,504.73224 a 21.166668,21.166668 0 0 1 21.16667,-21.16667 21.166668,21.166668 0 0 1 21.16666,21.16667 h -21.16666 z"
         transform="matrix(-0.5,0.8660254,0.8660254,0.5,0,0)" /><circle
         style="fill:#9bf6ff;fill-opacity:1;stroke-width:264.584;stroke-linejoin:round;paint-order:markers stroke fill"
         id="circle143"
         cx="547.43195"
         cy="134.60802"
         r="21.166668"
         transform="matrix(0.5,0.8660254,0.8660254,-0.5,0,0)" /><path
         style="fill:#333333;fill-opacity:1;stroke-width:264.584;stroke-linejoin:round;paint-order:markers stroke fill"
         id="path157"
         sodipodi:type="arc"
         sodipodi:cx="547.43195"
         sodipodi:cy="-134.60802"
         sodipodi:rx="21.166668"
         sodipodi:ry="21.166668"
         sodipodi:start="3.1415927"
         sodipodi:end="0"
         sodipodi:arc-type="slice"
         d="m 526.26528,-134.60802 a 21.166668,21.166668 0 0 1 21.16667,-21.16666 21.166668,21.166668 0 0 1 21.16666,21.16666 h -21.16666 z"
         transform="rotate(60)" /><circle
         style="fill:#9bf6ff;fill-opacity:1;stroke-width:264.584;stroke-linejoin:round;paint-order:markers stroke fill"
         id="circle157"
         cx="347.95663"
         cy="406.78595"
         r="21.166668" /><path
         style="fill:#333333;fill-opacity:1;stroke-width:264.584;stroke-linejoin:round;paint-order:markers stroke fill"
         id="path172"
         sodipodi:type="arc"
         sodipodi:cx="347.95663"
         sodipodi:cy="-406.78595"
         sodipodi:rx="21.166668"
         sodipodi:ry="21.166668"
         sodipodi:start="3.1415927"
         sodipodi:end="0"
         sodipodi:arc-type="slice"
         d="m 326.78997,-406.78595 a 21.166668,21.166668 0 0 1 21.16666,-21.16667 21.166668,21.166668 0 0 1 21.16667,21.16667 h -21.16667 z"
         transform="scale(1,-1)" /><path
         sodipodi:type="star"
         style="fill:#f9f9f9;fill-opacity:1;stroke-width:263.629;stroke-linejoin:round;paint-order:markers stroke fill"
         id="path173"
         inkscape:flatsided="true"
         sodipodi:sides="3"
         sodipodi:cx="416.18958"
         sodipodi:cy="164.83052"
         sodipodi:r1="24.353067"
         sodipodi:r2="12.176534"
         sodipodi:arg1="0.52359878"
         sodipodi:arg2="1.5707963"
         inkscape:rounded="0"
         inkscape:randomized="0"
         d="m 437.27995,177.00705 -42.18075,0 21.09038,-36.5296 z"
         inkscape:transform-center-x="-6.0154405e-06"
         inkscape:transform-center-y="-6.1102883"
         transform="matrix(1.0036174,0,0,1.0036174,-48.57182,229.1386)" /><g
         id="g181"
         transform="matrix(1.1979837,0,0,1.1979837,129.26949,230.02686)"
         style="stroke-width:0.834736"><path
           style="opacity:1;fill:#ff6361;fill-opacity:1;stroke-width:11.0428;stroke-linejoin:bevel;paint-order:markers stroke fill"
           d="m 276.57318,179.51979 c -0.78401,0 -2.35203,0 -3.74239,-0.76069 -1.39037,-0.76069 -2.60302,-2.28202 -3.17628,-3.84749 -0.57326,-1.56547 -0.50712,-3.17498 -0.28663,-4.07897 0.22049,-0.904 0.5953,-1.10243 0.89296,-1.11346 0.29766,-0.011 0.51816,0.16537 0.72762,0.68352 0.20946,0.51815 0.40789,1.37803 0.67248,1.85207 0.26458,0.47405 0.59531,0.56224 0.84887,0.50712 0.25356,-0.0551 0.42994,-0.25355 0.41891,-0.79376 -0.011,-0.5402 -0.20945,-1.42213 -0.54019,-2.3151 -0.33073,-0.89298 -0.79374,-1.79696 -0.93705,-2.4915 -0.14332,-0.69453 0.0331,-1.17959 0.30868,-1.367 0.27561,-0.18741 0.65042,-0.0772 1.0914,0.41893 0.44098,0.4961 0.94809,1.37803 1.06935,1.12445 0.12127,-0.25357 -0.14331,-1.6426 -0.0551,-2.85529 0.0882,-1.21268 0.52916,-2.24894 1.0473,-2.88835 0.51815,-0.63942 1.11346,-0.88195 1.53367,-0.7276 0.42021,0.15434 0.66532,0.70555 0.87478,1.49931 0.20947,0.79376 0.38328,1.83002 0.80092,2.71197 0.41764,0.88195 1.07909,1.60955 1.40982,1.22368 0.33073,-0.38586 0.33073,-1.88514 0.52917,-2.75606 0.19844,-0.87092 0.59531,-1.11346 0.91502,-0.98116 0.3197,0.1323 0.56223,0.6394 0.79374,2.01747 0.23152,1.37806 0.452,3.62697 0.8158,3.94666 0.36381,0.31969 0.87092,-1.28983 1.32291,-2.12767 0.45199,-0.83785 0.84888,-0.904 1.11346,-0.76068 0.26459,0.14332 0.39688,0.49609 0.27561,2.01747 -0.12127,1.52138 -0.49609,4.21126 -0.3197,5.01602 0.1764,0.80476 0.90399,-0.27559 1.47726,-0.79373 0.57327,-0.51814 0.99219,-0.47405 1.15755,-0.15199 0.16535,0.32205 0.0772,0.92203 -0.41894,1.88116 -0.4961,0.95912 -1.40007,2.27733 -2.61276,3.26718 -1.21269,0.98986 -2.73402,1.6513 -3.92465,2.04818 -1.19064,0.39688 -2.05051,0.52917 -2.54532,0.5843 -0.4948,0.0551 -0.62452,0.0331 -0.68938,0.0221 -0.0649,-0.011 -0.0649,-0.0111 -0.84888,-0.0111 z"
           id="path174"
           inkscape:path-effect="#path-effect208"
           inkscape:original-d="m 277.3572,179.51979 c -1.56803,0 -3.13605,0 -4.70408,0 -1.21269,-1.52139 -2.42535,-3.04271 -3.63802,-4.56406 0.0661,-1.60959 0.13229,-3.2191 0.19844,-4.82865 0.37483,-0.19844 0.74964,-0.39687 1.12448,-0.59531 0.22047,0.17639 0.44098,0.35278 0.66146,0.52917 0.19843,0.85991 0.39687,1.71979 0.59531,2.57968 0.33073,0.0882 0.66146,0.17639 0.99219,0.26459 0.17639,-0.19845 0.35276,-0.39688 0.52916,-0.59532 -0.19844,-0.88196 -0.39687,-1.76389 -0.59531,-2.64583 -0.46302,-0.90401 -0.92604,-1.80799 -1.38906,-2.71198 0.1764,-0.48508 0.35277,-0.97014 0.52916,-1.45521 0.37484,0.11025 0.74965,0.22049 1.12448,0.33073 0.50713,0.88196 1.01423,1.76389 1.52136,2.64584 -0.26459,-1.3891 -0.52917,-2.77813 -0.79375,-4.16719 0.44098,-1.03631 0.88193,-2.07257 1.32291,-3.10886 0.59532,-0.24254 1.19063,-0.48507 1.78594,-0.7276 0.24511,0.55122 0.49022,1.10243 0.73533,1.65365 0.17383,1.0363 0.34764,2.07256 0.52144,3.10885 0.66146,0.72762 1.32292,1.45521 1.98438,2.18281 0,-1.49933 0,-2.99861 0,-4.49791 0.39687,-0.24255 0.79375,-0.48508 1.19062,-0.72761 0.24255,0.50713 0.48506,1.01424 0.72761,1.52136 0.22047,2.249 0.44098,4.49791 0.66145,6.74687 0.50713,-1.60958 1.01423,-3.2191 1.52136,-4.82865 0.39687,-0.0661 0.79375,-0.13229 1.19062,-0.19843 0.1323,0.35278 0.26459,0.70555 0.39688,1.05833 -0.37484,2.68998 -0.74965,5.37986 -1.12448,8.06979 0.72763,-1.0804 1.45521,-2.16076 2.18281,-3.24114 0.41894,0.0441 0.83786,0.0882 1.25677,0.13229 -0.0882,0.60001 -0.17639,1.19999 -0.26458,1.79999 -0.904,1.31826 -1.80798,2.63646 -2.71198,3.9547 -1.52138,0.66147 -3.04271,1.32291 -4.56406,1.98437 -0.85992,0.13229 -1.71979,0.26458 -2.57969,0.39688 -0.12972,-0.022 -0.25942,-0.0441 -0.38915,-0.0661 z"
           transform="translate(-77.689304,-33.800521)" /><path
           style="opacity:1;fill:#ff6361;fill-opacity:1;stroke-width:15.6594;stroke-linejoin:bevel;paint-order:markers stroke fill"
           d="m 340.71192,163.15118 c -0.58991,0.38769 -0.9651,0.84302 -0.62071,0.97516 0.34439,0.13214 1.40831,-0.059 1.99823,-0.44664 0.58993,-0.3877 0.70579,-0.97197 0.3614,-1.1041 -0.34439,-0.13213 -1.14901,0.18789 -1.73892,0.57558 z"
           id="path175"
           inkscape:path-effect="#path-effect210"
           inkscape:original-d="m 340.4972,163.08352 c -0.37519,0.45535 -0.75038,0.91068 -1.12559,1.36605 1.06399,-0.1911 2.12791,-0.38218 3.19189,-0.57327 0.11586,-0.5843 0.23173,-1.16857 0.3476,-1.75286 -0.80465,0.32003 -1.60927,0.64005 -2.4139,0.96008 z"
           transform="matrix(-0.28749596,-0.40576156,-0.81594716,0.57812649,437.48891,175.44461)"
           sodipodi:nodetypes="ccccc" /><path
           style="opacity:1;fill:#ff6361;fill-opacity:1;stroke-width:11.0428;stroke-linejoin:bevel;paint-order:markers stroke fill"
           d="m 190.40022,140.95655 c 0.32684,0.72837 1.07261,1.59345 2.09864,2.32525 1.02603,0.73178 2.33232,1.33029 3.2734,1.18718 0.94107,-0.1431 1.51684,-1.02773 0.95436,-1.46707 -0.56248,-0.43933 -2.26318,-0.4333 -3.20854,-0.6491 -0.94537,-0.21579 -1.13532,-0.65339 -1.55288,-1.24172 -0.41752,-0.58833 -1.06265,-1.32729 -1.43122,-1.40095 -0.36857,-0.0737 -0.46061,0.51804 -0.13376,1.24641 z"
           id="path176"
           sodipodi:nodetypes="cccccccc" /><path
           style="opacity:1;fill:#ff6361;fill-opacity:1;stroke-width:3.78525;stroke-linejoin:bevel;paint-order:markers stroke fill"
           d="m 338.92209,161.21051 c -0.14838,0.13226 -0.21882,0.7823 -0.10565,0.97509 0.11316,0.19279 0.4099,-0.0717 0.44512,-0.39676 0.0352,-0.32505 -0.19109,-0.71059 -0.33947,-0.57833 z"
           id="path177"
           inkscape:path-effect="#path-effect212"
           inkscape:original-d="m 338.84415,160.69268 c -0.0704,0.65009 -0.14088,1.30013 -0.21132,1.95024 0.29677,-0.26453 0.59351,-0.52903 0.89028,-0.79356 -0.22633,-0.38557 -0.45264,-0.77111 -0.67896,-1.15668 z"
           transform="matrix(2.9196316,-0.73125687,0.68701709,2.7429989,-899.73329,-66.753649)"
           sodipodi:nodetypes="cccc" /><path
           style="opacity:1;fill:#ffa600;fill-opacity:1;stroke-width:18.1979;stroke-linejoin:bevel;paint-order:markers stroke fill"
           d="m 276.57318,179.51979 c -0.78401,0 -2.35203,0 -3.74239,-0.76069 -1.39037,-0.76069 -2.60302,-2.28202 -3.17628,-3.84749 -0.57326,-1.56547 -0.50712,-3.17498 -0.28663,-4.07897 0.22049,-0.904 0.5953,-1.10243 0.89296,-1.11346 0.29766,-0.011 0.51816,0.16537 0.72762,0.68352 0.20946,0.51815 0.40789,1.37803 0.67248,1.85207 0.26458,0.47405 0.59531,0.56224 0.84887,0.50712 0.25356,-0.0551 0.42994,-0.25355 0.41891,-0.79376 -0.011,-0.5402 -0.20945,-1.42213 -0.54019,-2.3151 -0.33073,-0.89298 -0.79374,-1.79696 -0.93705,-2.4915 -0.14332,-0.69453 0.0331,-1.17959 0.30868,-1.367 0.27561,-0.18741 0.65042,-0.0772 1.0914,0.41893 0.44098,0.4961 0.94809,1.37803 1.06935,1.12445 0.12127,-0.25357 -0.14331,-1.6426 -0.0551,-2.85529 0.0882,-1.21268 0.52916,-2.24894 1.0473,-2.88835 0.51815,-0.63942 1.11346,-0.88195 1.53367,-0.7276 0.42021,0.15434 0.66532,0.70555 0.87478,1.49931 0.20947,0.79376 0.38328,1.83002 0.80092,2.71197 0.41764,0.88195 1.07909,1.60955 1.40982,1.22368 0.33073,-0.38586 0.33073,-1.88514 0.52917,-2.75606 0.19844,-0.87092 0.59531,-1.11346 0.91502,-0.98116 0.3197,0.1323 0.56223,0.6394 0.79374,2.01747 0.23152,1.37806 0.452,3.62697 0.8158,3.94666 0.36381,0.31969 0.87092,-1.28983 1.32291,-2.12767 0.45199,-0.83785 0.84888,-0.904 1.11346,-0.76068 0.26459,0.14332 0.39688,0.49609 0.27561,2.01747 -0.12127,1.52138 -0.49609,4.21126 -0.3197,5.01602 0.1764,0.80476 0.90399,-0.27559 1.47726,-0.79373 0.57327,-0.51814 0.99219,-0.47405 1.15755,-0.15199 0.16535,0.32205 0.0772,0.92203 -0.41894,1.88116 -0.4961,0.95912 -1.40007,2.27733 -2.61276,3.26718 -1.21269,0.98986 -2.73402,1.6513 -3.92465,2.04818 -1.19064,0.39688 -2.05051,0.52917 -2.54532,0.5843 -0.4948,0.0551 -0.62452,0.0331 -0.68938,0.0221 -0.0649,-0.011 -0.0649,-0.0111 -0.84888,-0.0111 z"
           id="path178"
           inkscape:path-effect="#path-effect214"
           inkscape:original-d="m 277.3572,179.51979 c -1.56803,0 -3.13605,0 -4.70408,0 -1.21269,-1.52139 -2.42535,-3.04271 -3.63802,-4.56406 0.0661,-1.60959 0.13229,-3.2191 0.19844,-4.82865 0.37483,-0.19844 0.74964,-0.39687 1.12448,-0.59531 0.22047,0.17639 0.44098,0.35278 0.66146,0.52917 0.19843,0.85991 0.39687,1.71979 0.59531,2.57968 0.33073,0.0882 0.66146,0.17639 0.99219,0.26459 0.17639,-0.19845 0.35276,-0.39688 0.52916,-0.59532 -0.19844,-0.88196 -0.39687,-1.76389 -0.59531,-2.64583 -0.46302,-0.90401 -0.92604,-1.80799 -1.38906,-2.71198 0.1764,-0.48508 0.35277,-0.97014 0.52916,-1.45521 0.37484,0.11025 0.74965,0.22049 1.12448,0.33073 0.50713,0.88196 1.01423,1.76389 1.52136,2.64584 -0.26459,-1.3891 -0.52917,-2.77813 -0.79375,-4.16719 0.44098,-1.03631 0.88193,-2.07257 1.32291,-3.10886 0.59532,-0.24254 1.19063,-0.48507 1.78594,-0.7276 0.24511,0.55122 0.49022,1.10243 0.73533,1.65365 0.17383,1.0363 0.34764,2.07256 0.52144,3.10885 0.66146,0.72762 1.32292,1.45521 1.98438,2.18281 0,-1.49933 0,-2.99861 0,-4.49791 0.39687,-0.24255 0.79375,-0.48508 1.19062,-0.72761 0.24255,0.50713 0.48506,1.01424 0.72761,1.52136 0.22047,2.249 0.44098,4.49791 0.66145,6.74687 0.50713,-1.60958 1.01423,-3.2191 1.52136,-4.82865 0.39687,-0.0661 0.79375,-0.13229 1.19062,-0.19843 0.1323,0.35278 0.26459,0.70555 0.39688,1.05833 -0.37484,2.68998 -0.74965,5.37986 -1.12448,8.06979 0.72763,-1.0804 1.45521,-2.16076 2.18281,-3.24114 0.41894,0.0441 0.83786,0.0882 1.25677,0.13229 -0.0882,0.60001 -0.17639,1.19999 -0.26458,1.79999 -0.904,1.31826 -1.80798,2.63646 -2.71198,3.9547 -1.52138,0.66147 -3.04271,1.32291 -4.56406,1.98437 -0.85992,0.13229 -1.71979,0.26458 -2.57969,0.39688 -0.12972,-0.022 -0.25942,-0.0441 -0.38915,-0.0661 z"
           transform="matrix(0.60682058,0,0,0.60682058,30.997154,36.377285)" /><path
           style="opacity:1;fill:#ff6361;fill-opacity:1;stroke-width:15.6594;stroke-linejoin:bevel;paint-order:markers stroke fill"
           d="m 340.71192,163.15118 c -0.58991,0.38769 -0.9651,0.84302 -0.62071,0.97516 0.34439,0.13214 1.40831,-0.059 1.99823,-0.44664 0.58993,-0.3877 0.70579,-0.97197 0.3614,-1.1041 -0.34439,-0.13213 -1.14901,0.18789 -1.73892,0.57558 z"
           id="path179"
           inkscape:path-effect="#path-effect216"
           inkscape:original-d="m 340.4972,163.08352 c -0.37519,0.45535 -0.75038,0.91068 -1.12559,1.36605 1.06399,-0.1911 2.12791,-0.38218 3.19189,-0.57327 0.11586,-0.5843 0.23173,-1.16857 0.3476,-1.75286 -0.80465,0.32003 -1.60927,0.64005 -2.4139,0.96008 z"
           transform="matrix(-0.28749596,-0.40576156,-0.81594716,0.57812649,423.48038,178.22273)"
           sodipodi:nodetypes="ccccc" /><path
           style="opacity:1;fill:#ffa600;fill-opacity:1;stroke-width:7.57049;stroke-linejoin:bevel;paint-order:markers stroke fill"
           d="m 338.92209,161.21051 c -0.14838,0.13226 -0.21882,0.7823 -0.10565,0.97509 0.11316,0.19279 0.4099,-0.0717 0.44512,-0.39676 0.0352,-0.32505 -0.19109,-0.71059 -0.33947,-0.57833 z"
           id="path180"
           inkscape:path-effect="#path-effect218"
           inkscape:original-d="m 338.84415,160.69268 c -0.0704,0.65009 -0.14088,1.30013 -0.21132,1.95024 0.29677,-0.26453 0.59351,-0.52903 0.89028,-0.79356 -0.22633,-0.38557 -0.45264,-0.77111 -0.67896,-1.15668 z"
           transform="matrix(1.4598158,-0.36562844,0.34350855,1.3714995,-349.28201,31.396966)"
           sodipodi:nodetypes="cccc" /><path
           style="opacity:1;fill:#ffa600;fill-opacity:1;stroke-width:26.6312;stroke-linejoin:bevel;paint-order:markers stroke fill"
           d="m 340.71192,163.15118 c -0.58991,0.38769 -0.9651,0.84302 -0.62071,0.97516 0.34439,0.13214 1.40831,-0.059 1.99823,-0.44664 0.58993,-0.3877 0.70579,-0.97197 0.3614,-1.1041 -0.34439,-0.13213 -1.14901,0.18789 -1.73892,0.57558 z"
           id="path181"
           inkscape:path-effect="#path-effect220"
           inkscape:original-d="m 340.4972,163.08352 c -0.37519,0.45535 -0.75038,0.91068 -1.12559,1.36605 1.06399,-0.1911 2.12791,-0.38218 3.19189,-0.57327 0.11586,-0.5843 0.23173,-1.16857 0.3476,-1.75286 -0.80465,0.32003 -1.60927,0.64005 -2.4139,0.96008 z"
           transform="matrix(-0.16905151,-0.23859329,-0.47978797,0.3399462,342.13038,157.41757)"
           sodipodi:nodetypes="ccccc" /></g><circle
         style="fill:#9bf6ff;fill-opacity:1;stroke-width:264.584;stroke-linejoin:round;paint-order:markers stroke fill"
         id="circle181"
         cx="135.97533"
         cy="-504.73227"
         r="21.166668"
         transform="rotate(120)" /><path
         style="fill:#333333;fill-opacity:1;stroke-width:264.584;stroke-linejoin:round;paint-order:markers stroke fill"
         id="path182"
         sodipodi:type="arc"
         sodipodi:cx="135.97533"
         sodipodi:cy="504.73224"
         sodipodi:rx="21.166668"
         sodipodi:ry="21.166668"
         sodipodi:start="3.1415927"
         sodipodi:end="0"
         sodipodi:arc-type="slice"
         d="m 114.80866,504.73224 a 21.166668,21.166668 0 0 1 21.16667,-21.16667 21.166668,21.166668 0 0 1 21.16666,21.16667 h -21.16666 z"
         transform="matrix(-0.5,0.8660254,0.8660254,0.5,0,0)" /><circle
         style="fill:#9bf6ff;fill-opacity:1;stroke-width:264.584;stroke-linejoin:round;paint-order:markers stroke fill"
         id="circle182"
         cx="547.43195"
         cy="134.60802"
         r="21.166668"
         transform="matrix(0.5,0.8660254,0.8660254,-0.5,0,0)" /><path
         style="fill:#333333;fill-opacity:1;stroke-width:264.584;stroke-linejoin:round;paint-order:markers stroke fill"
         id="path183"
         sodipodi:type="arc"
         sodipodi:cx="547.43195"
         sodipodi:cy="-134.60802"
         sodipodi:rx="21.166668"
         sodipodi:ry="21.166668"
         sodipodi:start="3.1415927"
         sodipodi:end="0"
         sodipodi:arc-type="slice"
         d="m 526.26528,-134.60802 a 21.166668,21.166668 0 0 1 21.16667,-21.16666 21.166668,21.166668 0 0 1 21.16666,21.16666 h -21.16666 z"
         transform="rotate(60)" /><circle
         style="fill:#9bf6ff;fill-opacity:1;stroke-width:264.584;stroke-linejoin:round;paint-order:markers stroke fill"
         id="circle183"
         cx="347.95663"
         cy="406.78595"
         r="21.166668" /><path
         style="fill:#333333;fill-opacity:1;stroke-width:264.584;stroke-linejoin:round;paint-order:markers stroke fill"
         id="path184"
         sodipodi:type="arc"
         sodipodi:cx="347.95663"
         sodipodi:cy="-406.78595"
         sodipodi:rx="21.166668"
         sodipodi:ry="21.166668"
         sodipodi:start="3.1415927"
         sodipodi:end="0"
         sodipodi:arc-type="slice"
         d="m 326.78997,-406.78595 a 21.166668,21.166668 0 0 1 21.16666,-21.16667 21.166668,21.166668 0 0 1 21.16667,21.16667 h -21.16667 z"
         transform="scale(1,-1)" /><path
         sodipodi:type="star"
         style="fill:#f9f9f9;fill-opacity:1;stroke-width:263.629;stroke-linejoin:round;paint-order:markers stroke fill"
         id="path185"
         inkscape:flatsided="true"
         sodipodi:sides="3"
         sodipodi:cx="416.18958"
         sodipodi:cy="164.83052"
         sodipodi:r1="24.353067"
         sodipodi:r2="12.176534"
         sodipodi:arg1="0.52359878"
         sodipodi:arg2="1.5707963"
         inkscape:rounded="0"
         inkscape:randomized="0"
         d="m 437.27995,177.00705 -42.18075,0 21.09038,-36.5296 z"
         inkscape:transform-center-x="-6.0154405e-06"
         inkscape:transform-center-y="-6.1102883"
         transform="matrix(1.0036174,0,0,1.0036174,-48.57182,229.1386)" /><g
         id="g207"
         transform="matrix(1.1979837,0,0,1.1979837,129.26949,230.02686)"
         style="stroke-width:0.834736"><path
           style="opacity:1;fill:#ff6361;fill-opacity:1;stroke-width:11.0428;stroke-linejoin:bevel;paint-order:markers stroke fill"
           d="m 276.57318,179.51979 c -0.78401,0 -2.35203,0 -3.74239,-0.76069 -1.39037,-0.76069 -2.60302,-2.28202 -3.17628,-3.84749 -0.57326,-1.56547 -0.50712,-3.17498 -0.28663,-4.07897 0.22049,-0.904 0.5953,-1.10243 0.89296,-1.11346 0.29766,-0.011 0.51816,0.16537 0.72762,0.68352 0.20946,0.51815 0.40789,1.37803 0.67248,1.85207 0.26458,0.47405 0.59531,0.56224 0.84887,0.50712 0.25356,-0.0551 0.42994,-0.25355 0.41891,-0.79376 -0.011,-0.5402 -0.20945,-1.42213 -0.54019,-2.3151 -0.33073,-0.89298 -0.79374,-1.79696 -0.93705,-2.4915 -0.14332,-0.69453 0.0331,-1.17959 0.30868,-1.367 0.27561,-0.18741 0.65042,-0.0772 1.0914,0.41893 0.44098,0.4961 0.94809,1.37803 1.06935,1.12445 0.12127,-0.25357 -0.14331,-1.6426 -0.0551,-2.85529 0.0882,-1.21268 0.52916,-2.24894 1.0473,-2.88835 0.51815,-0.63942 1.11346,-0.88195 1.53367,-0.7276 0.42021,0.15434 0.66532,0.70555 0.87478,1.49931 0.20947,0.79376 0.38328,1.83002 0.80092,2.71197 0.41764,0.88195 1.07909,1.60955 1.40982,1.22368 0.33073,-0.38586 0.33073,-1.88514 0.52917,-2.75606 0.19844,-0.87092 0.59531,-1.11346 0.91502,-0.98116 0.3197,0.1323 0.56223,0.6394 0.79374,2.01747 0.23152,1.37806 0.452,3.62697 0.8158,3.94666 0.36381,0.31969 0.87092,-1.28983 1.32291,-2.12767 0.45199,-0.83785 0.84888,-0.904 1.11346,-0.76068 0.26459,0.14332 0.39688,0.49609 0.27561,2.01747 -0.12127,1.52138 -0.49609,4.21126 -0.3197,5.01602 0.1764,0.80476 0.90399,-0.27559 1.47726,-0.79373 0.57327,-0.51814 0.99219,-0.47405 1.15755,-0.15199 0.16535,0.32205 0.0772,0.92203 -0.41894,1.88116 -0.4961,0.95912 -1.40007,2.27733 -2.61276,3.26718 -1.21269,0.98986 -2.73402,1.6513 -3.92465,2.04818 -1.19064,0.39688 -2.05051,0.52917 -2.54532,0.5843 -0.4948,0.0551 -0.62452,0.0331 -0.68938,0.0221 -0.0649,-0.011 -0.0649,-0.0111 -0.84888,-0.0111 z"
           id="path186"
           inkscape:path-effect="#path-effect222"
           inkscape:original-d="m 277.3572,179.51979 c -1.56803,0 -3.13605,0 -4.70408,0 -1.21269,-1.52139 -2.42535,-3.04271 -3.63802,-4.56406 0.0661,-1.60959 0.13229,-3.2191 0.19844,-4.82865 0.37483,-0.19844 0.74964,-0.39687 1.12448,-0.59531 0.22047,0.17639 0.44098,0.35278 0.66146,0.52917 0.19843,0.85991 0.39687,1.71979 0.59531,2.57968 0.33073,0.0882 0.66146,0.17639 0.99219,0.26459 0.17639,-0.19845 0.35276,-0.39688 0.52916,-0.59532 -0.19844,-0.88196 -0.39687,-1.76389 -0.59531,-2.64583 -0.46302,-0.90401 -0.92604,-1.80799 -1.38906,-2.71198 0.1764,-0.48508 0.35277,-0.97014 0.52916,-1.45521 0.37484,0.11025 0.74965,0.22049 1.12448,0.33073 0.50713,0.88196 1.01423,1.76389 1.52136,2.64584 -0.26459,-1.3891 -0.52917,-2.77813 -0.79375,-4.16719 0.44098,-1.03631 0.88193,-2.07257 1.32291,-3.10886 0.59532,-0.24254 1.19063,-0.48507 1.78594,-0.7276 0.24511,0.55122 0.49022,1.10243 0.73533,1.65365 0.17383,1.0363 0.34764,2.07256 0.52144,3.10885 0.66146,0.72762 1.32292,1.45521 1.98438,2.18281 0,-1.49933 0,-2.99861 0,-4.49791 0.39687,-0.24255 0.79375,-0.48508 1.19062,-0.72761 0.24255,0.50713 0.48506,1.01424 0.72761,1.52136 0.22047,2.249 0.44098,4.49791 0.66145,6.74687 0.50713,-1.60958 1.01423,-3.2191 1.52136,-4.82865 0.39687,-0.0661 0.79375,-0.13229 1.19062,-0.19843 0.1323,0.35278 0.26459,0.70555 0.39688,1.05833 -0.37484,2.68998 -0.74965,5.37986 -1.12448,8.06979 0.72763,-1.0804 1.45521,-2.16076 2.18281,-3.24114 0.41894,0.0441 0.83786,0.0882 1.25677,0.13229 -0.0882,0.60001 -0.17639,1.19999 -0.26458,1.79999 -0.904,1.31826 -1.80798,2.63646 -2.71198,3.9547 -1.52138,0.66147 -3.04271,1.32291 -4.56406,1.98437 -0.85992,0.13229 -1.71979,0.26458 -2.57969,0.39688 -0.12972,-0.022 -0.25942,-0.0441 -0.38915,-0.0661 z"
           transform="translate(-77.689304,-33.800521)" /><path
           style="opacity:1;fill:#ff6361;fill-opacity:1;stroke-width:15.6594;stroke-linejoin:bevel;paint-order:markers stroke fill"
           d="m 340.71192,163.15118 c -0.58991,0.38769 -0.9651,0.84302 -0.62071,0.97516 0.34439,0.13214 1.40831,-0.059 1.99823,-0.44664 0.58993,-0.3877 0.70579,-0.97197 0.3614,-1.1041 -0.34439,-0.13213 -1.14901,0.18789 -1.73892,0.57558 z"
           id="path187"
           inkscape:path-effect="#path-effect224"
           inkscape:original-d="m 340.4972,163.08352 c -0.37519,0.45535 -0.75038,0.91068 -1.12559,1.36605 1.06399,-0.1911 2.12791,-0.38218 3.19189,-0.57327 0.11586,-0.5843 0.23173,-1.16857 0.3476,-1.75286 -0.80465,0.32003 -1.60927,0.64005 -2.4139,0.96008 z"
           transform="matrix(-0.28749596,-0.40576156,-0.81594716,0.57812649,437.48891,175.44461)"
           sodipodi:nodetypes="ccccc" /><path
           style="opacity:1;fill:#ff6361;fill-opacity:1;stroke-width:11.0428;stroke-linejoin:bevel;paint-order:markers stroke fill"
           d="m 190.40022,140.95655 c 0.32684,0.72837 1.07261,1.59345 2.09864,2.32525 1.02603,0.73178 2.33232,1.33029 3.2734,1.18718 0.94107,-0.1431 1.51684,-1.02773 0.95436,-1.46707 -0.56248,-0.43933 -2.26318,-0.4333 -3.20854,-0.6491 -0.94537,-0.21579 -1.13532,-0.65339 -1.55288,-1.24172 -0.41752,-0.58833 -1.06265,-1.32729 -1.43122,-1.40095 -0.36857,-0.0737 -0.46061,0.51804 -0.13376,1.24641 z"
           id="path188"
           sodipodi:nodetypes="cccccccc" /><path
           style="opacity:1;fill:#ff6361;fill-opacity:1;stroke-width:3.78525;stroke-linejoin:bevel;paint-order:markers stroke fill"
           d="m 338.92209,161.21051 c -0.14838,0.13226 -0.21882,0.7823 -0.10565,0.97509 0.11316,0.19279 0.4099,-0.0717 0.44512,-0.39676 0.0352,-0.32505 -0.19109,-0.71059 -0.33947,-0.57833 z"
           id="path190"
           inkscape:path-effect="#path-effect226"
           inkscape:original-d="m 338.84415,160.69268 c -0.0704,0.65009 -0.14088,1.30013 -0.21132,1.95024 0.29677,-0.26453 0.59351,-0.52903 0.89028,-0.79356 -0.22633,-0.38557 -0.45264,-0.77111 -0.67896,-1.15668 z"
           transform="matrix(2.9196316,-0.73125687,0.68701709,2.7429989,-899.73329,-66.753649)"
           sodipodi:nodetypes="cccc" /><path
           style="opacity:1;fill:#ffa600;fill-opacity:1;stroke-width:18.1979;stroke-linejoin:bevel;paint-order:markers stroke fill"
           d="m 276.57318,179.51979 c -0.78401,0 -2.35203,0 -3.74239,-0.76069 -1.39037,-0.76069 -2.60302,-2.28202 -3.17628,-3.84749 -0.57326,-1.56547 -0.50712,-3.17498 -0.28663,-4.07897 0.22049,-0.904 0.5953,-1.10243 0.89296,-1.11346 0.29766,-0.011 0.51816,0.16537 0.72762,0.68352 0.20946,0.51815 0.40789,1.37803 0.67248,1.85207 0.26458,0.47405 0.59531,0.56224 0.84887,0.50712 0.25356,-0.0551 0.42994,-0.25355 0.41891,-0.79376 -0.011,-0.5402 -0.20945,-1.42213 -0.54019,-2.3151 -0.33073,-0.89298 -0.79374,-1.79696 -0.93705,-2.4915 -0.14332,-0.69453 0.0331,-1.17959 0.30868,-1.367 0.27561,-0.18741 0.65042,-0.0772 1.0914,0.41893 0.44098,0.4961 0.94809,1.37803 1.06935,1.12445 0.12127,-0.25357 -0.14331,-1.6426 -0.0551,-2.85529 0.0882,-1.21268 0.52916,-2.24894 1.0473,-2.88835 0.51815,-0.63942 1.11346,-0.88195 1.53367,-0.7276 0.42021,0.15434 0.66532,0.70555 0.87478,1.49931 0.20947,0.79376 0.38328,1.83002 0.80092,2.71197 0.41764,0.88195 1.07909,1.60955 1.40982,1.22368 0.33073,-0.38586 0.33073,-1.88514 0.52917,-2.75606 0.19844,-0.87092 0.59531,-1.11346 0.91502,-0.98116 0.3197,0.1323 0.56223,0.6394 0.79374,2.01747 0.23152,1.37806 0.452,3.62697 0.8158,3.94666 0.36381,0.31969 0.87092,-1.28983 1.32291,-2.12767 0.45199,-0.83785 0.84888,-0.904 1.11346,-0.76068 0.26459,0.14332 0.39688,0.49609 0.27561,2.01747 -0.12127,1.52138 -0.49609,4.21126 -0.3197,5.01602 0.1764,0.80476 0.90399,-0.27559 1.47726,-0.79373 0.57327,-0.51814 0.99219,-0.47405 1.15755,-0.15199 0.16535,0.32205 0.0772,0.92203 -0.41894,1.88116 -0.4961,0.95912 -1.40007,2.27733 -2.61276,3.26718 -1.21269,0.98986 -2.73402,1.6513 -3.92465,2.04818 -1.19064,0.39688 -2.05051,0.52917 -2.54532,0.5843 -0.4948,0.0551 -0.62452,0.0331 -0.68938,0.0221 -0.0649,-0.011 -0.0649,-0.0111 -0.84888,-0.0111 z"
           id="path193"
           inkscape:path-effect="#path-effect228"
           inkscape:original-d="m 277.3572,179.51979 c -1.56803,0 -3.13605,0 -4.70408,0 -1.21269,-1.52139 -2.42535,-3.04271 -3.63802,-4.56406 0.0661,-1.60959 0.13229,-3.2191 0.19844,-4.82865 0.37483,-0.19844 0.74964,-0.39687 1.12448,-0.59531 0.22047,0.17639 0.44098,0.35278 0.66146,0.52917 0.19843,0.85991 0.39687,1.71979 0.59531,2.57968 0.33073,0.0882 0.66146,0.17639 0.99219,0.26459 0.17639,-0.19845 0.35276,-0.39688 0.52916,-0.59532 -0.19844,-0.88196 -0.39687,-1.76389 -0.59531,-2.64583 -0.46302,-0.90401 -0.92604,-1.80799 -1.38906,-2.71198 0.1764,-0.48508 0.35277,-0.97014 0.52916,-1.45521 0.37484,0.11025 0.74965,0.22049 1.12448,0.33073 0.50713,0.88196 1.01423,1.76389 1.52136,2.64584 -0.26459,-1.3891 -0.52917,-2.77813 -0.79375,-4.16719 0.44098,-1.03631 0.88193,-2.07257 1.32291,-3.10886 0.59532,-0.24254 1.19063,-0.48507 1.78594,-0.7276 0.24511,0.55122 0.49022,1.10243 0.73533,1.65365 0.17383,1.0363 0.34764,2.07256 0.52144,3.10885 0.66146,0.72762 1.32292,1.45521 1.98438,2.18281 0,-1.49933 0,-2.99861 0,-4.49791 0.39687,-0.24255 0.79375,-0.48508 1.19062,-0.72761 0.24255,0.50713 0.48506,1.01424 0.72761,1.52136 0.22047,2.249 0.44098,4.49791 0.66145,6.74687 0.50713,-1.60958 1.01423,-3.2191 1.52136,-4.82865 0.39687,-0.0661 0.79375,-0.13229 1.19062,-0.19843 0.1323,0.35278 0.26459,0.70555 0.39688,1.05833 -0.37484,2.68998 -0.74965,5.37986 -1.12448,8.06979 0.72763,-1.0804 1.45521,-2.16076 2.18281,-3.24114 0.41894,0.0441 0.83786,0.0882 1.25677,0.13229 -0.0882,0.60001 -0.17639,1.19999 -0.26458,1.79999 -0.904,1.31826 -1.80798,2.63646 -2.71198,3.9547 -1.52138,0.66147 -3.04271,1.32291 -4.56406,1.98437 -0.85992,0.13229 -1.71979,0.26458 -2.57969,0.39688 -0.12972,-0.022 -0.25942,-0.0441 -0.38915,-0.0661 z"
           transform="matrix(0.60682058,0,0,0.60682058,30.997154,36.377285)" /><path
           style="opacity:1;fill:#ff6361;fill-opacity:1;stroke-width:15.6594;stroke-linejoin:bevel;paint-order:markers stroke fill"
           d="m 340.71192,163.15118 c -0.58991,0.38769 -0.9651,0.84302 -0.62071,0.97516 0.34439,0.13214 1.40831,-0.059 1.99823,-0.44664 0.58993,-0.3877 0.70579,-0.97197 0.3614,-1.1041 -0.34439,-0.13213 -1.14901,0.18789 -1.73892,0.57558 z"
           id="path205"
           inkscape:path-effect="#path-effect230"
           inkscape:original-d="m 340.4972,163.08352 c -0.37519,0.45535 -0.75038,0.91068 -1.12559,1.36605 1.06399,-0.1911 2.12791,-0.38218 3.19189,-0.57327 0.11586,-0.5843 0.23173,-1.16857 0.3476,-1.75286 -0.80465,0.32003 -1.60927,0.64005 -2.4139,0.96008 z"
           transform="matrix(-0.28749596,-0.40576156,-0.81594716,0.57812649,423.48038,178.22273)"
           sodipodi:nodetypes="ccccc" /><path
           style="opacity:1;fill:#ffa600;fill-opacity:1;stroke-width:7.57049;stroke-linejoin:bevel;paint-order:markers stroke fill"
           d="m 338.92209,161.21051 c -0.14838,0.13226 -0.21882,0.7823 -0.10565,0.97509 0.11316,0.19279 0.4099,-0.0717 0.44512,-0.39676 0.0352,-0.32505 -0.19109,-0.71059 -0.33947,-0.57833 z"
           id="path206"
           inkscape:path-effect="#path-effect232"
           inkscape:original-d="m 338.84415,160.69268 c -0.0704,0.65009 -0.14088,1.30013 -0.21132,1.95024 0.29677,-0.26453 0.59351,-0.52903 0.89028,-0.79356 -0.22633,-0.38557 -0.45264,-0.77111 -0.67896,-1.15668 z"
           transform="matrix(1.4598158,-0.36562844,0.34350855,1.3714995,-349.28201,31.396966)"
           sodipodi:nodetypes="cccc" /><path
           style="opacity:1;fill:#ffa600;fill-opacity:1;stroke-width:26.6312;stroke-linejoin:bevel;paint-order:markers stroke fill"
           d="m 340.71192,163.15118 c -0.58991,0.38769 -0.9651,0.84302 -0.62071,0.97516 0.34439,0.13214 1.40831,-0.059 1.99823,-0.44664 0.58993,-0.3877 0.70579,-0.97197 0.3614,-1.1041 -0.34439,-0.13213 -1.14901,0.18789 -1.73892,0.57558 z"
           id="path207"
           inkscape:path-effect="#path-effect234"
           inkscape:original-d="m 340.4972,163.08352 c -0.37519,0.45535 -0.75038,0.91068 -1.12559,1.36605 1.06399,-0.1911 2.12791,-0.38218 3.19189,-0.57327 0.11586,-0.5843 0.23173,-1.16857 0.3476,-1.75286 -0.80465,0.32003 -1.60927,0.64005 -2.4139,0.96008 z"
           transform="matrix(-0.16905151,-0.23859329,-0.47978797,0.3399462,342.13038,157.41757)"
           sodipodi:nodetypes="ccccc" /></g></g><text
       xml:space="preserve"
       style="font-style:normal;font-variant:normal;font-weight:normal;font-stretch:normal;font-size:62.8369px;font-family:Jokerman;-inkscape-font-specification:Jokerman;opacity:1;fill:#333333;fill-opacity:1;stroke:none;stroke-width:264.583;stroke-linejoin:round;paint-order:markers stroke fill"
       x="414.36755"
       y="403.29553"
       id="text234"><tspan
         sodipodi:role="line"
         id="tspan234"
         style="font-style:normal;font-variant:normal;font-weight:normal;font-stretch:normal;font-family:Jokerman;-inkscape-font-specification:Jokerman;fill:#333333;fill-opacity:1;stroke:none;stroke-width:264.583"
         x="414.36755"
         y="403.29553">BISACOOL</tspan></text><text
       xml:space="preserve"
       style="font-style:normal;font-variant:normal;font-weight:normal;font-stretch:normal;font-size:27.8694px;font-family:'Comic Sans MS';-inkscape-font-specification:'Comic Sans MS';opacity:1;fill:#333333;fill-opacity:1;stroke-width:264.583;stroke-linejoin:round;paint-order:markers stroke fill"
       x="417.78238"
       y="427.69199"
       id="text235"><tspan
         sodipodi:role="line"
         id="tspan235"
         style="font-style:normal;font-variant:normal;font-weight:normal;font-stretch:normal;font-family:'Comic Sans MS';-inkscape-font-specification:'Comic Sans MS';fill:#333333;fill-opacity:1;stroke-width:264.583"
         x="417.78238"
         y="427.69199">BATAAN SAYANS SKUL</tspan></text></g></svg>
