<?xml version="1.0" encoding="UTF-8" standalone="no"?>
<!-- Created with Inkscape (http://www.inkscape.org/) -->

<svg
   width="39.755295mm"
   height="37.294689mm"
   viewBox="0 0 39.755294 37.294689"
   version="1.1"
   id="svg1"
   xml:space="preserve"
   inkscape:version="1.3 (0e150ed6c4, 2023-07-21)"
   sodipodi:docname="BISACOOL.svg"
   inkscape:export-filename=".\bitmap.svg"
   inkscape:export-xdpi="96"
   inkscape:export-ydpi="96"
   xmlns:inkscape="http://www.inkscape.org/namespaces/inkscape"
   xmlns:sodipodi="http://sodipodi.sourceforge.net/DTD/sodipodi-0.dtd"
   xmlns="http://www.w3.org/2000/svg"
   xmlns:svg="http://www.w3.org/2000/svg"><sodipodi:namedview
     id="namedview1"
     pagecolor="#ffffff"
     bordercolor="#eeeeee"
     borderopacity="0"
     inkscape:showpageshadow="0"
     inkscape:pageopacity="0"
     inkscape:pagecheckerboard="0"
     inkscape:deskcolor="#ffffff"
     inkscape:document-units="mm"
     showguides="true"
     inkscape:zoom="0.25"
     inkscape:cx="48"
     inkscape:cy="370"
     inkscape:window-width="1920"
     inkscape:window-height="979"
     inkscape:window-x="-8"
     inkscape:window-y="30"
     inkscape:window-maximized="1"
     inkscape:current-layer="layer1"><sodipodi:guide
       position="-35.189586,311.45248"
       orientation="1,0"
       id="guide1"
       inkscape:locked="false" /><sodipodi:guide
       position="-21.16667,332.35456"
       orientation="0,-1"
       id="guide2"
       inkscape:locked="false" /><sodipodi:guide
       position="-14.287503,290.5504"
       orientation="0,-1"
       id="guide3"
       inkscape:locked="false" /><sodipodi:guide
       position="-14.2875,115.52331"
       orientation="1,0"
       id="guide11"
       inkscape:locked="false" /><sodipodi:guide
       position="-179.91667,311.45248"
       orientation="0,-1"
       id="guide12"
       inkscape:locked="false" /><sodipodi:guide
       position="6.6145783,311.45248"
       orientation="1,0"
       id="guide13"
       inkscape:locked="false" /><sodipodi:guide
       position="-14.287504,269.64832"
       orientation="0,-1"
       id="guide14"
       inkscape:locked="false" /><sodipodi:guide
       position="-14.287505,161.44343"
       orientation="0,-1"
       id="guide35"
       inkscape:locked="false" /><sodipodi:guide
       position="-14.28751,83.009944"
       orientation="0,-1"
       id="guide36"
       inkscape:locked="false" /><sodipodi:guide
       position="-14.287507,140.54135"
       orientation="0,-1"
       id="guide37"
       inkscape:locked="false" /><sodipodi:guide
       position="-14.287508,103.91203"
       orientation="0,-1"
       id="guide38"
       inkscape:locked="false" /><sodipodi:guide
       position="-14.287501,115.52331"
       orientation="0,-1"
       id="guide39"
       inkscape:locked="false" /></sodipodi:namedview><defs
     id="defs1" /><g
     inkscape:label="Layer 1"
     inkscape:groupmode="layer"
     id="layer1"
     transform="translate(-34.66042,-136.4254)"><g
       id="g34"
       transform="matrix(0.47549446,0,0,0.47549446,44.85086,5.1423676)"
       inkscape:export-filename="BISACOOL"
       inkscape:export-xdpi="96"
       inkscape:export-ydpi="96"><path
         id="path25"
         style="opacity:1;fill:#2800f6;fill-opacity:1;stroke-width:0.264583"
         d="M 41.275003,297 A 20.902082,20.902082 0 0 1 20.37292,317.90209 20.902082,20.902082 0 0 1 -0.52916311,297 20.902082,20.902082 0 0 1 20.37292,276.09792 20.902082,20.902082 0 0 1 41.275003,297 Z" /><path
         id="path26"
         style="opacity:1;fill:#0000ff;stroke-width:0.264583"
         d="M 20.372917,333.62932 A 20.902082,20.902082 0 0 1 -0.52916551,354.53141 20.902082,20.902082 0 0 1 -21.431248,333.62932 20.902082,20.902082 0 0 1 -0.52916551,312.72724 20.902082,20.902082 0 0 1 20.372917,333.62932 Z" /><path
         id="path27"
         style="opacity:1;fill:#2800f6;fill-opacity:1;stroke-width:0.264583"
         d="M 62.17708,333.62932 A 20.902082,20.902082 0 0 1 41.274998,354.53141 20.902082,20.902082 0 0 1 20.372915,333.62932 20.902082,20.902082 0 0 1 41.274998,312.72724 20.902082,20.902082 0 0 1 62.17708,333.62932 Z" /><path
         id="path28"
         style="opacity:1;stroke-width:0.264583"
         d="m 20.372915,333.62932 h -41.80416 A 20.902082,20.902082 0 0 0 -0.52915526,354.5314 20.902082,20.902082 0 0 0 20.372915,333.62932 Z" /><path
         id="path29"
         style="opacity:1;stroke-width:0.264583"
         d="m 30.823959,315.52759 20.90208,36.20346 a 20.902082,20.902082 0 0 0 7.65069,-28.55278 20.902082,20.902082 0 0 0 -28.55277,-7.65068 z" /><path
         id="path30"
         style="opacity:1;fill:#ffffff;stroke-width:0.264583"
         inkscape:transform-center-x="-6.2600858e-06"
         inkscape:transform-center-y="-6.104885"
         transform="matrix(1.1679908,0,0,1.1679908,-189.95051,154.54286)"
         d="m 180.07285,121.96769 9.05313,15.68048 9.05313,15.68049 h -18.10626 l -18.10627,-1e-5 9.05313,-15.68048 z" /><path
         id="path31"
         style="opacity:1;stroke-width:0.264583"
         d="M 30.823958,278.89827 9.9218773,315.10173 a 20.902082,20.902082 0 0 1 -7.65069,-28.55278 20.902082,20.902082 0 0 1 28.5527707,-7.65068 z" /></g><path
       style="opacity:1;fill:#ff4e00;fill-opacity:1;stroke-width:0.100024"
       d="m 50.010439,157.88924 c -0.179481,0.40965 -0.538441,1.22895 -0.417339,2.06633 0.121102,0.83739 0.722242,1.69281 1.792656,2.28954 1.070413,0.59672 2.610023,0.9347 3.948573,0.76601 1.338549,-0.16868 2.475958,-0.84401 3.200373,-1.66766 0.724414,-0.82364 1.035797,-1.79554 0.962271,-2.66907 -0.07353,-0.87352 -0.53195,-1.64863 -0.74603,-2.18078 -0.21408,-0.53215 -0.183808,-0.8213 -0.216246,-0.94581 -0.03244,-0.1245 -0.12758,-0.0843 -0.181639,-0.004 -0.05406,0.0805 -0.06703,0.20138 -0.294087,0.43834 -0.227056,0.23696 -0.668182,0.58999 -0.869288,0.21227 -0.201105,-0.37773 -0.162182,-1.48617 0.0065,-2.187 0.168671,-0.70083 0.467077,-0.994 0.343816,-1.44784 -0.123261,-0.45383 -0.668183,-1.06829 -1.02066,-1.492 -0.352477,-0.42371 -0.512491,-0.65664 -0.538439,-0.92975 -0.02595,-0.2731 0.08217,-0.58636 0.01946,-0.58636 -0.06271,1e-5 -0.296249,0.31326 -0.462756,0.83537 -0.166508,0.52212 -0.265978,1.25305 -0.395724,1.70888 -0.129746,0.45584 -0.289765,0.63657 -0.458434,0.68476 -0.168669,0.0482 -0.345986,-0.0361 -0.402208,-0.16065 -0.05622,-0.12451 0.0086,-0.28916 0.0021,-0.3976 -0.0065,-0.10844 -0.08433,-0.16065 -0.227056,-0.0361 -0.142724,0.12451 -0.350311,0.42571 -0.611967,0.9659 -0.261655,0.54019 -0.577362,1.31931 -0.808743,1.48597 -0.23138,0.16668 -0.378421,-0.27911 -0.490868,-0.44579 -0.112446,-0.16666 -0.19029,-0.0542 -0.220564,0.12853 -0.03027,0.18273 -0.01298,0.43575 -0.214086,0.74299 -0.201109,0.30724 -0.620608,0.66869 -0.759001,1.22895 -0.138393,0.56027 0.0043,1.31931 -0.0692,1.62052 -0.07353,0.30121 -0.363283,0.14458 -0.514652,-0.004 -0.15137,-0.1486 -0.164342,-0.28917 -0.170827,-0.35945 -0.0065,-0.0703 -0.0065,-0.0703 -0.185983,0.33937 z"
       id="path34" /><path
       style="opacity:1;fill:#ffc90d;fill-opacity:1;stroke-width:0.0812164"
       d="m 54.988143,155.1897 c -0.148357,0.0383 -0.397215,0.26322 -0.760935,0.57908 -0.363719,0.31586 -0.842278,0.72263 -1.05285,1.22754 -0.210572,0.5049 -0.153145,1.10789 -0.184253,1.51946 -0.03111,0.41157 -0.150748,0.63171 -0.239285,0.63171 -0.08854,0 -0.145964,-0.22014 -0.217752,-0.32064 -0.07179,-0.1005 -0.157925,-0.0813 -0.263214,0.20579 -0.105287,0.28715 -0.229712,0.84228 -0.215354,1.42853 0.01436,0.58627 0.167499,1.20361 0.533612,1.6104 0.366113,0.40678 0.945173,0.60299 1.483572,0.66281 0.538399,0.0598 1.036103,-0.0167 1.512286,-0.17228 0.476182,-0.15554 0.930816,-0.39003 1.179675,-0.99065 0.248859,-0.60062 0.291929,-1.56731 0.239285,-1.92624 -0.05265,-0.35893 -0.201,-0.11008 -0.291928,-0.0814 -0.09093,0.0287 -0.124428,-0.16271 -0.124428,-0.40439 1e-6,-0.24169 0.0335,-0.53361 -0.07418,-0.86383 -0.107682,-0.33022 -0.356536,-0.69871 -0.509678,-0.88296 -0.153141,-0.18425 -0.21057,-0.18425 -0.263214,-0.0694 -0.05264,0.11485 -0.100498,0.34456 -0.27518,0.45224 -0.174682,0.10768 -0.476177,0.0933 -0.634105,-0.14358 -0.157928,-0.23689 -0.172285,-0.69632 -0.08135,-1.10071 0.09093,-0.4044 0.287142,-0.75375 0.361318,-1.00261 0.07418,-0.24886 0.02632,-0.39722 -0.122036,-0.35893 z"
       id="path35" /></g></svg>
